<svg width="411" height="140" viewBox="0 0 411 140" fill="none" xmlns="http://www.w3.org/2000/svg">
<path fill-rule="evenodd" clip-rule="evenodd" d="M0.339844 42.8514L19.0744 135.656L395.271 140L411.007 26.0912L301.708 30.5517V5.74169C301.708 2.57416 299.132 0 295.957 0L280.77 0C277.594 0 275.02 2.57329 275.019 5.7409C275.019 2.57416 272.441 0.00157244 269.265 0.00157244L254.078 0.00157244C250.904 0.00157244 248.329 2.57416 248.329 5.7409V18.6731L235.551 2.22434C234.462 0.822603 232.781 0.00157244 231.006 0.00157244L218.093 0.00157244C214.919 0.00157244 212.341 2.57416 212.341 5.7409C212.341 2.57337 209.765 0 206.59 0L191.404 0C188.903 0 186.774 1.59572 185.983 3.82006C185.906 3.60279 185.815 3.38874 185.71 3.1787C184.736 1.23237 182.741 0 180.561 0L163.066 0C161.24 0 159.525 0.864924 158.439 2.32975L147.17 17.5301L133.971 2.0246C132.88 0.742756 131.275 0 129.589 0L115.39 0C112.215 0 109.637 2.57416 109.637 5.74169V38.3908L0.339844 42.8514ZM185.652 8.41402C185.51 8.68479 185.345 8.94517 185.158 9.19438L174.172 23.7558H179.899C183.076 23.7558 185.652 26.326 185.652 29.4967V8.41402Z" fill="#FFCE42"/>
<path fill-rule="evenodd" clip-rule="evenodd" d="M164.716 57.3814C163.304 57.3814 162.158 56.2397 162.158 54.8314V34.3782L149.523 51.1259C149.051 51.7517 148.325 52.123 147.541 52.143C147.521 52.143 147.501 52.143 147.481 52.143C146.721 52.143 146.001 51.8079 145.515 51.2242L133.133 36.3584V54.8314C133.133 56.2397 131.987 57.3814 130.578 57.3814H115.391C113.978 57.3814 112.834 56.2397 112.834 54.8314V5.74259C112.834 4.33196 113.978 3.18872 115.391 3.18872L129.588 3.18872C130.336 3.18872 131.05 3.51935 131.534 4.08904L147.344 22.6604L161.01 4.22356C161.491 3.57386 162.253 3.18872 163.065 3.18872L180.561 3.18872C181.53 3.18872 182.417 3.73615 182.851 4.6032C183.282 5.46741 183.187 6.50288 182.604 7.2749L167.765 26.9433H179.9C181.312 26.9433 182.457 28.0871 182.457 29.4972V54.8314C182.457 56.2397 181.312 57.3814 179.9 57.3814L164.716 57.3814Z" fill="white"/>
<path fill-rule="evenodd" clip-rule="evenodd" d="M164.717 55.8513C164.152 55.8513 163.693 55.3939 163.693 54.832V29.8008L148.299 50.2095C148.109 50.4563 147.818 50.6068 147.506 50.6152C147.498 50.6152 147.488 50.6152 147.482 50.6152C147.178 50.6152 146.887 50.4768 146.696 50.2456L131.6 32.1222V54.832C131.6 55.3939 131.144 55.8513 130.579 55.8513H115.392C114.83 55.8513 114.369 55.3939 114.369 54.832V5.74323C114.369 5.18132 114.83 4.72168 115.392 4.72168L129.59 4.72168C129.887 4.72168 130.174 4.85227 130.368 5.08291L147.426 25.1226L162.242 5.13514C162.435 4.87453 162.743 4.72168 163.066 4.72168L180.563 4.72168C180.951 4.72168 181.307 4.94289 181.482 5.28579C181.65 5.63262 181.612 6.04774 181.381 6.35681L164.693 28.479C164.701 28.479 179.901 28.479 179.901 28.479C180.464 28.479 180.927 28.9343 180.927 29.4978V54.832C180.927 55.3939 180.464 55.8513 179.901 55.8513L164.717 55.8513Z" fill="#1B1918"/>
<path fill-rule="evenodd" clip-rule="evenodd" d="M115.387 54.9181L115.297 5.74102L129.585 5.65039L147.543 26.7011L162.989 5.6865L180.557 5.65039L147.547 49.6437L130.504 29.3533L130.664 54.8298C130.664 54.8759 130.624 54.9181 130.574 54.9181H115.387ZM164.712 54.9181L164.621 29.4956L179.896 29.4055L179.987 54.8298C179.987 54.8759 179.946 54.9181 179.896 54.9181L164.712 54.9181Z" fill="#E84026"/>
<path fill-rule="evenodd" clip-rule="evenodd" d="M353.171 125.779C351.384 125.779 349.7 124.953 348.609 123.54L341.356 114.135V120.039C341.356 123.207 338.782 125.779 335.602 125.779H320.418C317.243 125.779 314.666 123.207 314.666 120.039V70.9507C314.666 67.7831 317.243 65.2109 320.418 65.2109H333.33C335.105 65.2109 336.786 66.0319 337.876 67.4341L350.653 83.8823V70.9507C350.653 67.7831 353.229 65.2109 356.403 65.2109H371.589C374.766 65.2109 377.343 67.7831 377.343 70.9507V98C377.343 101.167 374.766 103.737 371.589 103.737H366.075L376.006 116.523C377.351 118.254 377.591 120.595 376.624 122.566C375.659 124.531 373.656 125.779 371.459 125.779H353.171Z" fill="#1B1918"/>
<path fill-rule="evenodd" clip-rule="evenodd" d="M89.0723 125.773C85.8937 125.773 83.3184 123.203 83.3184 120.033V109.119L76.4311 118.247C75.3756 119.648 73.7348 120.49 71.9737 120.533C71.9275 120.534 71.8834 120.534 71.8372 120.534C70.1285 120.534 68.5083 119.776 67.4105 118.462L60.6858 110.385V120.033C60.6858 123.203 58.1104 125.773 54.9341 125.773H39.7475C36.5712 125.773 33.9941 123.203 33.9941 120.033V70.9441C33.9941 67.776 36.5712 65.2021 39.7475 65.2021H53.9449C55.6314 65.2021 57.236 65.9447 58.3277 67.2264L71.5259 82.7319L82.796 67.5315C83.8815 66.067 85.5963 65.2021 87.4216 65.2021H104.918C107.097 65.2021 109.093 66.4338 110.066 68.3801C111.039 70.3282 110.824 72.657 109.514 74.3966L98.529 88.9573H104.257C107.433 88.9573 110.008 91.5273 110.008 94.6987V120.033C110.008 123.203 107.433 125.773 104.257 125.773L89.0723 125.773Z" fill="#1B1918"/>
<path fill-rule="evenodd" clip-rule="evenodd" d="M89.0791 122.591C87.6678 122.591 86.5216 121.449 86.5216 120.041V99.5877L73.8864 116.335C73.4141 116.961 72.6884 117.332 71.9042 117.352C71.8842 117.352 71.8641 117.352 71.844 117.352C71.0843 117.352 70.3642 117.017 69.878 116.434L57.4962 101.568V120.041C57.4962 121.449 56.35 122.591 54.9409 122.591H39.7543C38.3412 122.591 37.1973 121.449 37.1973 120.041V70.952C37.1973 69.5414 38.3412 68.3982 39.7543 68.3982H53.9517C54.6997 68.3982 55.4132 68.7289 55.8977 69.2986L71.7076 87.8699L85.3737 69.433C85.8543 68.7833 86.6162 68.3982 87.4283 68.3982H104.925C105.894 68.3982 106.78 68.9456 107.214 69.8127C107.645 70.677 107.55 71.7124 106.968 72.4844L92.1285 92.1528H104.264C105.675 92.1528 106.82 93.2967 106.82 94.7066V120.041C106.82 121.449 105.675 122.591 104.264 122.591H89.0791Z" fill="#FFCE42"/>
<path fill-rule="evenodd" clip-rule="evenodd" d="M89.0804 121.056C88.5151 121.056 88.0567 120.599 88.0567 120.037V95.0058L72.6618 115.415C72.4725 115.661 72.1811 115.812 71.8693 115.82C71.8614 115.82 71.8515 115.82 71.8453 115.82C71.5417 115.82 71.2505 115.682 71.0595 115.451L55.9636 97.3274V120.037C55.9636 120.599 55.5069 121.056 54.9422 121.056H39.7556C39.193 121.056 38.7324 120.599 38.7324 120.037V70.9483C38.7324 70.3864 39.193 69.9268 39.7556 69.9268H53.953C54.2504 69.9268 54.5378 70.0573 54.7311 70.288L71.789 90.3277L86.6053 70.3402C86.7986 70.0796 87.106 69.9268 87.4296 69.9268H104.926C105.314 69.9268 105.67 70.148 105.845 70.4909C106.014 70.8377 105.975 71.2529 105.744 71.5619L89.0559 93.6841C89.0643 93.6841 104.265 93.6841 104.265 93.6841C104.827 93.6841 105.29 94.1393 105.29 94.7029V120.037C105.29 120.599 104.827 121.056 104.265 121.056H89.0804Z" fill="#1B1918"/>
<path d="M39.7503 120.119L39.6602 70.9422L53.9478 70.8516L71.9064 91.9023L87.352 70.8877L104.921 70.8516L71.9103 114.845L54.8668 94.5545L55.0272 120.031C55.0272 120.077 54.9871 120.119 54.937 120.119H39.7503ZM89.0752 120.119L88.9844 94.6968L104.26 94.6068L104.35 120.031C104.35 120.077 104.31 120.119 104.26 120.119H89.0752Z" fill="url(#paint0_linear_13_472)"/>
<path fill-rule="evenodd" clip-rule="evenodd" d="M353.187 122.592C352.393 122.592 351.645 122.225 351.16 121.597L338.178 104.769V120.04C338.178 121.448 337.032 122.592 335.619 122.592H320.434C319.025 122.592 317.879 121.448 317.879 120.04V70.9511C317.879 69.541 319.025 68.3994 320.434 68.3994H333.347C334.137 68.3994 334.883 68.7646 335.365 69.3882L353.865 93.2017V70.9511C353.865 69.541 355.01 68.3994 356.42 68.3994H371.606C373.02 68.3994 374.165 69.541 374.165 70.9511V98.0004C374.165 99.4065 373.02 100.55 371.606 100.55H359.572L373.5 118.475C374.095 119.246 374.2 120.287 373.773 121.159C373.343 122.038 372.453 122.592 371.476 122.592H353.187Z" fill="#FFCE42"/>
<path fill-rule="evenodd" clip-rule="evenodd" d="M353.169 121.059C352.85 121.059 352.55 120.912 352.357 120.66L336.628 100.269V120.039C336.628 120.599 336.165 121.059 335.601 121.059H320.416C319.853 121.059 319.393 120.599 319.393 120.039V70.9507C319.393 70.3871 319.853 69.9297 320.416 69.9297H333.329C333.642 69.9297 333.94 70.0759 334.135 70.3248L355.381 97.6727V70.9507C355.381 70.3871 355.839 69.9297 356.402 69.9297H371.588C372.153 69.9297 372.612 70.3871 372.612 70.9507V98C372.612 98.5614 372.153 99.0188 371.588 99.0188H356.424L372.268 119.414C372.509 119.72 372.547 120.138 372.376 120.487C372.203 120.838 371.85 121.059 371.458 121.059H353.169Z" fill="#1B1918"/>
<path d="M356.414 98.0872L356.324 70.9494L371.6 70.8594L371.693 97.9988C371.693 98.0466 371.651 98.0872 371.6 98.0872H356.414ZM353.182 120.127L335.545 97.3268L335.703 120.038L320.429 120.127L320.338 70.9494L333.341 70.8594L371.542 119.984C371.562 120.008 371.566 120.048 371.55 120.078C371.536 120.107 371.506 120.127 371.47 120.127H353.182Z" fill="url(#paint1_linear_13_472)"/>
<path fill-rule="evenodd" clip-rule="evenodd" d="M191.109 125.77C187.933 125.77 185.358 123.2 185.358 120.032V90.1902H178.959C175.782 90.1902 173.207 87.6185 173.207 84.4489V70.9414C173.207 67.7734 175.782 65.2034 178.959 65.2034H218.115C221.291 65.2034 223.869 67.7734 223.869 70.9414V84.4489C223.869 87.6185 221.291 90.1902 218.115 90.1902H211.72V120.032C211.72 123.2 209.143 125.77 205.966 125.77H191.109Z" fill="#1B1918"/>
<path fill-rule="evenodd" clip-rule="evenodd" d="M191.116 122.586C189.705 122.586 188.561 121.443 188.561 120.036V88.3407C188.561 87.851 188.698 87.3936 188.937 87.0068H178.965C177.556 87.0068 176.41 85.8629 176.41 84.453V70.9455C176.41 69.5387 177.556 68.3955 178.965 68.3955H218.121C219.535 68.3955 220.678 69.5387 220.678 70.9455V84.453C220.678 85.8629 219.535 87.0068 218.121 87.0068H208.152C208.391 87.3936 208.53 87.851 208.53 88.3407V120.036C208.53 121.443 207.386 122.586 205.972 122.586H191.116Z" fill="#FFCE42"/>
<path fill-rule="evenodd" clip-rule="evenodd" d="M178.965 85.4755C178.402 85.4755 177.943 85.0181 177.943 84.4545V70.9471C177.943 70.3852 178.402 69.9277 178.965 69.9277H218.121C218.685 69.9277 219.144 70.3852 219.144 70.9471V84.4545C219.144 85.0181 218.685 85.4755 218.121 85.4755H178.965ZM191.115 121.057C190.551 121.057 190.092 120.599 190.092 120.038V88.3423C190.092 87.7787 190.551 87.3213 191.115 87.3213H205.972C206.537 87.3213 206.995 87.7787 206.995 88.3423V120.038C206.995 120.599 206.537 121.057 205.972 121.057H191.115Z" fill="#1B1918"/>
<path d="M178.957 84.5472L178.871 70.9497L218.113 70.8613L218.204 84.4572C218.204 84.5072 218.162 84.5472 218.113 84.5472H178.957ZM191.108 120.127L191.017 88.345L205.964 88.2549L206.055 120.04C206.055 120.089 206.013 120.127 205.964 120.127H191.108Z" fill="url(#paint2_linear_13_472)"/>
<path fill-rule="evenodd" clip-rule="evenodd" d="M229.625 125.776C226.448 125.776 223.873 123.206 223.873 120.037V70.948C223.873 67.7799 226.448 65.2061 229.625 65.2061H244.811C247.986 65.2061 250.563 67.7799 250.563 70.948V120.037C250.563 123.206 247.986 125.776 244.811 125.776H229.625Z" fill="#1B1918"/>
<path fill-rule="evenodd" clip-rule="evenodd" d="M229.624 122.589C228.213 122.589 227.066 121.448 227.066 120.039V70.9503C227.066 69.5397 228.213 68.3965 229.624 68.3965H244.81C246.221 68.3965 247.365 69.5397 247.365 70.9503V120.039C247.365 121.448 246.221 122.589 244.81 122.589H229.624Z" fill="#FFCE42"/>
<path fill-rule="evenodd" clip-rule="evenodd" d="M229.621 121.058C229.056 121.058 228.598 120.601 228.598 120.039V70.9503C228.598 70.3884 229.056 69.9287 229.621 69.9287H244.807C245.373 69.9287 245.829 70.3884 245.829 70.9503V120.039C245.829 120.601 245.373 121.058 244.807 121.058H229.621Z" fill="#1B1918"/>
<path d="M229.62 120.126L229.529 70.949L244.806 70.8584L244.897 120.038C244.897 120.084 244.856 120.126 244.806 120.126H229.62Z" fill="url(#paint3_linear_13_472)"/>
<path fill-rule="evenodd" clip-rule="evenodd" d="M159.565 67.3463C161.239 68.373 162.799 69.5365 164.237 70.8179C164.625 70.8074 165.042 70.8838 165.499 71.0781C168.873 72.5049 174.881 81.5552 176.186 85.9707C176.604 87.3898 175.796 87.8378 174.415 87.8299C174.866 89.7052 175.153 91.6285 175.269 93.5775C175.551 93.8448 175.793 94.194 175.98 94.6562C177.355 98.0465 175.191 108.684 172.984 112.727C172.276 114.022 171.39 113.774 170.425 112.802C169.396 114.476 168.228 116.037 166.944 117.476C166.952 117.86 166.876 118.271 166.683 118.723C165.252 122.091 156.184 128.085 151.759 129.386C150.348 129.803 149.895 129.01 149.896 127.651C148.005 128.105 146.065 128.395 144.1 128.509C143.837 128.775 143.498 129.004 143.056 129.182C139.658 130.553 128.998 128.392 124.947 126.191C123.663 125.493 123.891 124.62 124.84 123.668C123.151 122.633 121.577 121.459 120.127 120.166C119.76 120.165 119.368 120.086 118.938 119.904C115.564 118.477 109.557 109.427 108.252 105.012C107.839 103.614 108.618 103.157 109.963 103.152C109.508 101.257 109.219 99.3146 109.108 97.3446C108.851 97.0857 108.631 96.7546 108.458 96.3267C107.083 92.9359 109.248 82.2981 111.454 78.2555C112.154 76.9734 113.029 77.2031 113.985 78.1501C115.021 76.4698 116.198 74.9027 117.493 73.4598C117.492 73.0895 117.57 72.6925 117.754 72.2592C119.185 68.8917 128.253 62.8972 132.678 61.5955C134.09 61.1803 134.543 61.9729 134.541 63.3329C136.429 62.8834 138.364 62.5984 140.325 62.4865C140.59 62.2142 140.932 61.9822 141.382 61.8007C144.78 60.4292 155.439 62.5895 159.49 64.7907C160.788 65.4965 160.54 66.3815 159.565 67.3463Z" fill="#1B1918"/>
<path fill-rule="evenodd" clip-rule="evenodd" d="M135.391 73.2916C123.108 77.0649 116.215 90.0671 119.997 102.323C123.78 114.581 136.807 121.46 149.091 117.686C161.373 113.911 168.266 100.91 164.484 88.6523C160.702 76.3958 147.674 69.5163 135.391 73.2916Z" fill="#FEFDF4"/>
<path d="M138.424 83.1932C131.619 85.2836 127.801 92.4855 129.897 99.2757C131.992 106.065 139.209 109.877 146.013 107.785C152.817 105.695 156.636 98.4927 154.541 91.7026C152.445 84.9132 145.228 81.1022 138.424 83.1932Z" fill="url(#paint4_linear_13_472)"/>
<path fill-rule="evenodd" clip-rule="evenodd" d="M153.57 82.0644C153.57 82.0644 155.795 83.8401 156.913 86.738C158.031 89.637 154.932 90.2933 150.715 91.2817C146.5 92.2721 146.091 91.4054 145.462 89.3494C144.831 87.2926 145.059 83.734 145.699 80.8941C146.339 78.055 150.947 79.9766 153.57 82.0644ZM133.01 81.2749C133.01 81.2749 135.412 79.7479 138.522 79.6284C141.631 79.5089 141.253 82.6467 140.829 86.9491C140.406 91.2492 139.453 91.3557 137.299 91.2859C135.145 91.2165 131.843 89.8528 129.358 88.3312C126.871 86.8098 130.182 83.0777 133.01 81.2749ZM125.408 101.149C125.408 101.149 124.555 98.4369 125.25 95.4091C125.944 92.3821 128.882 93.5625 132.934 95.0912C136.984 96.6199 136.84 97.5664 136.211 99.6231C135.582 101.681 133.404 104.505 131.284 106.504C129.163 108.504 126.416 104.342 125.408 101.149ZM141.553 112.503C141.553 112.503 138.704 112.487 136.025 110.905C133.347 109.323 135.37 106.89 138.063 103.504C140.754 100.119 141.613 100.546 143.386 101.769C145.158 102.993 147.191 105.925 148.454 108.548C149.717 111.171 144.908 112.517 141.553 112.503ZM158.841 100.607C158.841 100.607 158.179 103.373 156.028 105.617C153.877 107.86 151.96 105.343 149.267 101.958C146.574 98.573 147.185 97.8356 148.782 96.3895C150.378 94.9447 153.701 93.6349 156.547 93.0025C159.394 92.3708 159.616 97.3496 158.841 100.607ZM136.489 76.3751C125.911 79.626 119.975 90.8221 123.232 101.378C126.49 111.933 137.71 117.857 148.288 114.607C158.866 111.357 164.802 100.161 161.545 89.605C158.287 79.0485 147.068 73.1249 136.489 76.3751Z" fill="#1B1918"/>
<path fill-rule="evenodd" clip-rule="evenodd" d="M300.325 67.0319C302.017 68.0701 303.594 69.2466 305.048 70.5422C305.44 70.5316 305.862 70.6089 306.325 70.8053C309.736 72.2481 315.811 81.3992 317.13 85.8638C317.554 87.2987 316.736 87.7515 315.339 87.7437C315.795 89.6398 316.086 91.5846 316.203 93.5553C316.489 93.8255 316.733 94.1787 316.922 94.646C318.312 98.074 316.124 108.83 313.893 112.918C313.177 114.227 312.281 113.977 311.305 112.994C310.264 114.686 309.084 116.265 307.785 117.719C307.794 118.108 307.716 118.524 307.522 118.981C306.075 122.386 296.906 128.447 292.432 129.763C291.005 130.184 290.546 129.383 290.548 128.008C288.636 128.467 286.674 128.76 284.687 128.875C284.421 129.145 284.079 129.376 283.631 129.556C280.196 130.943 269.417 128.758 265.321 126.532C264.023 125.826 264.254 124.944 265.213 123.981C263.505 122.934 261.913 121.747 260.447 120.44C260.076 120.439 259.679 120.359 259.245 120.175C255.833 118.732 249.759 109.581 248.44 105.117C248.022 103.703 248.81 103.242 250.17 103.236C249.71 101.32 249.418 99.3563 249.305 97.3643C249.046 97.1025 248.824 96.7678 248.648 96.3351C247.259 92.9066 249.447 82.1502 251.678 78.0626C252.386 76.7663 253.271 76.9985 254.237 77.9562C255.285 76.2571 256.475 74.6725 257.784 73.2135C257.782 72.8392 257.862 72.4377 258.048 71.9997C259.495 68.5946 268.664 62.5333 273.138 61.2171C274.566 60.7973 275.024 61.5987 275.022 62.9739C276.931 62.5194 278.888 62.2312 280.87 62.1181C281.138 61.8426 281.484 61.6081 281.939 61.4246C285.374 60.0378 296.153 62.2222 300.248 64.4479C301.561 65.1615 301.31 66.0565 300.325 67.0319Z" fill="#1B1918"/>
<path fill-rule="evenodd" clip-rule="evenodd" d="M275.867 73.0462C263.447 76.8616 256.478 90.0086 260.302 102.401C264.126 114.795 277.299 121.751 289.72 117.935C302.139 114.118 309.108 100.973 305.284 88.578C301.46 76.1851 288.287 69.2289 275.867 73.0462Z" fill="#FEFDF4"/>
<path d="M278.934 83.0608C272.053 85.1746 268.192 92.4567 270.311 99.3225C272.43 106.188 279.728 110.042 286.607 107.927C293.487 105.813 297.349 98.5308 295.23 91.6651C293.111 84.8 285.813 80.9466 278.934 83.0608Z" fill="url(#paint5_linear_13_472)"/>
<path fill-rule="evenodd" clip-rule="evenodd" d="M294.246 81.914C294.246 81.914 296.496 83.7095 297.626 86.6396C298.757 89.5709 295.623 90.2345 291.359 91.234C287.097 92.2354 286.683 91.3591 286.047 89.2801C285.41 87.2005 285.64 83.6023 286.287 80.7308C286.934 77.86 291.594 79.803 294.246 81.914ZM273.456 81.1157C273.456 81.1157 275.885 79.5717 279.03 79.4509C282.174 79.3301 281.792 82.5028 281.363 86.8531C280.936 91.2012 279.972 91.3089 277.793 91.2382C275.615 91.1681 272.277 89.7891 269.765 88.2505C267.25 86.7122 270.597 82.9387 273.456 81.1157ZM265.771 101.211C265.771 101.211 264.908 98.4689 265.61 95.4074C266.312 92.3466 269.283 93.5402 273.38 95.0859C277.475 96.6317 277.329 97.5886 276.694 99.6682C276.058 101.749 273.855 104.605 271.711 106.626C269.568 108.648 266.789 104.44 265.771 101.211ZM282.095 112.691C282.095 112.691 279.214 112.676 276.506 111.076C273.798 109.476 275.843 107.017 278.566 103.593C281.288 100.17 282.156 100.602 283.948 101.838C285.741 103.075 287.796 106.04 289.072 108.693C290.35 111.345 285.487 112.705 282.095 112.691ZM299.575 100.663C299.575 100.663 298.906 103.46 296.731 105.729C294.556 107.997 292.618 105.452 289.895 102.029C287.172 98.6066 287.79 97.8609 289.404 96.3987C291.019 94.9377 294.378 93.6134 297.256 92.9739C300.135 92.3352 300.359 97.3695 299.575 100.663ZM276.975 76.1614C266.279 79.4485 260.277 90.7692 263.57 101.443C266.864 112.115 278.209 118.105 288.905 114.819C299.601 111.533 305.603 100.212 302.309 89.5386C299.015 78.8646 287.671 72.875 276.975 76.1614Z" fill="#1B1918"/>
<path fill-rule="evenodd" clip-rule="evenodd" d="M250.848 57.3831C250.053 57.3831 249.305 57.0157 248.821 56.3876L235.838 39.5598V54.8309C235.838 56.2392 234.692 57.3831 233.279 57.3831H218.094C216.685 57.3831 215.539 56.2392 215.539 54.8309V5.74209C215.539 4.33202 216.685 3.19043 218.094 3.19043L231.007 3.19043C231.797 3.19043 232.543 3.55559 233.025 4.17917L251.525 27.9927V5.74209C251.525 4.33202 252.67 3.19043 254.08 3.19043L269.266 3.19043C270.68 3.19043 271.825 4.33202 271.825 5.74209V32.7914C271.825 34.1975 270.68 35.3409 269.266 35.3409H257.232L271.16 53.2663C271.755 54.0367 271.86 55.0776 271.433 55.9502C271.003 56.829 270.113 57.3831 269.136 57.3831H250.848Z" fill="white"/>
<path fill-rule="evenodd" clip-rule="evenodd" d="M250.847 55.8479C250.527 55.8479 250.228 55.7011 250.034 55.4488L234.305 35.0578V54.8285C234.305 55.3882 233.843 55.8479 233.278 55.8479H218.094C217.531 55.8479 217.07 55.3882 217.07 54.8285V5.73974C217.07 5.17611 217.531 4.71875 218.094 4.71875L231.007 4.71875C231.32 4.71875 231.618 4.86491 231.812 5.11389L253.058 32.4617V5.73974C253.058 5.17611 253.517 4.71875 254.08 4.71875L269.266 4.71875C269.831 4.71875 270.289 5.17611 270.289 5.73974V32.7891C270.289 33.3504 269.831 33.8079 269.266 33.8079H254.101L269.945 54.2027C270.186 54.5095 270.225 54.9269 270.054 55.2759C269.881 55.6272 269.527 55.8479 269.135 55.8479H250.847Z" fill="#1B1918"/>
<path fill-rule="evenodd" clip-rule="evenodd" d="M254.077 32.8752L253.986 5.73753L269.263 5.64746L269.355 32.7868C269.355 32.8347 269.313 32.8752 269.263 32.8752H254.077ZM250.844 54.9146L233.207 32.1149L233.365 54.8263L218.091 54.9146L218 5.73753L231.003 5.64746L269.205 54.7724C269.225 54.7963 269.229 54.8363 269.213 54.8663C269.199 54.8947 269.168 54.9146 269.132 54.9146H250.844Z" fill="#EE7005"/>
<path fill-rule="evenodd" clip-rule="evenodd" d="M280.77 57.3792C279.359 57.3792 278.213 56.2375 278.213 54.8292V5.74039C278.213 4.32977 279.359 3.18652 280.77 3.18652H295.956C297.368 3.18652 298.512 4.32977 298.512 5.74039V54.8292C298.512 56.2375 297.368 57.3792 295.956 57.3792H280.77Z" fill="white"/>
<path fill-rule="evenodd" clip-rule="evenodd" d="M280.768 55.8484C280.202 55.8484 279.744 55.391 279.744 54.8291V5.7403C279.744 5.17839 280.202 4.71875 280.768 4.71875H295.954C296.519 4.71875 296.975 5.17839 296.975 5.7403V54.8291C296.975 55.391 296.519 55.8484 295.954 55.8484H280.768Z" fill="#1B1918"/>
<path fill-rule="evenodd" clip-rule="evenodd" d="M280.78 54.9172L280.689 5.74004L295.966 5.64941L296.057 54.8288C296.057 54.8749 296.016 54.9172 295.966 54.9172H280.78Z" fill="#2FA729"/>
<path fill-rule="evenodd" clip-rule="evenodd" d="M191.409 57.3792C189.998 57.3792 188.852 56.2375 188.852 54.8292V5.74039C188.852 4.32977 189.998 3.18652 191.409 3.18652L206.595 3.18652C208.007 3.18652 209.151 4.32977 209.151 5.74039V54.8292C209.151 56.2375 208.007 57.3792 206.595 57.3792H191.409Z" fill="white"/>
<path fill-rule="evenodd" clip-rule="evenodd" d="M191.399 55.8474C190.833 55.8474 190.375 55.39 190.375 54.8281V5.73932C190.375 5.17742 190.833 4.71777 191.399 4.71777L206.585 4.71777C207.15 4.71777 207.606 5.17742 207.606 5.73932V54.8281C207.606 55.39 207.15 55.8474 206.585 55.8474H191.399Z" fill="#1B1918"/>
<path fill-rule="evenodd" clip-rule="evenodd" d="M191.403 54.9162L191.312 5.73906L206.589 5.64844L206.68 54.8278C206.68 54.8739 206.639 54.9162 206.589 54.9162H191.403Z" fill="#E83F70"/>
<defs>
<linearGradient id="paint0_linear_13_472" x1="-183.601" y1="-159.771" x2="-183.601" y2="-209.038" gradientUnits="userSpaceOnUse">
<stop stop-color="#006FB5"/>
<stop offset="1" stop-color="#00B2E7"/>
</linearGradient>
<linearGradient id="paint1_linear_13_472" x1="-464.268" y1="-159.764" x2="-464.268" y2="-209.031" gradientUnits="userSpaceOnUse">
<stop stop-color="#006FB5"/>
<stop offset="1" stop-color="#00B2E7"/>
</linearGradient>
<linearGradient id="paint2_linear_13_472" x1="-322.816" y1="-159.763" x2="-322.816" y2="-209.028" gradientUnits="userSpaceOnUse">
<stop stop-color="#006FB5"/>
<stop offset="1" stop-color="#00B2E7"/>
</linearGradient>
<linearGradient id="paint3_linear_13_472" x1="-373.472" y1="-159.764" x2="-373.472" y2="-209.031" gradientUnits="userSpaceOnUse">
<stop stop-color="#006FB5"/>
<stop offset="1" stop-color="#00B2E7"/>
</linearGradient>
<linearGradient id="paint4_linear_13_472" x1="-273.27" y1="-171.532" x2="-273.27" y2="-197.27" gradientUnits="userSpaceOnUse">
<stop stop-color="#006FB5"/>
<stop offset="1" stop-color="#00B2E7"/>
</linearGradient>
<linearGradient id="paint5_linear_13_472" x1="-413.669" y1="-171.384" x2="-413.669" y2="-197.409" gradientUnits="userSpaceOnUse">
<stop stop-color="#006FB5"/>
<stop offset="1" stop-color="#00B2E7"/>
</linearGradient>
</defs>
</svg>
