<svg width="64" height="64" viewBox="0 0 64 64" fill="none" xmlns="http://www.w3.org/2000/svg">
<g clip-path="url(#clip0_13_513)">
<path d="M17.6997 16.3627L41.0952 47.6374H46.393L22.9975 16.3627H17.6997Z" fill="black"/>
<path d="M32 0C14.3268 0 0 14.3268 0 32C0 49.6732 14.3268 64 32 64C49.6732 64 64 49.6732 64 32C64 14.3268 49.6732 0 32 0ZM39.845 50.1362L29.194 35.8948L16.0114 50.1362H12.6229L27.68 33.8702L12.7175 13.8638H24.2496L34.0587 26.9796L46.1988 13.8638H49.5872L35.5726 29.0048L51.3771 50.1362H39.845Z" fill="black"/>
</g>
<defs>
<clipPath id="clip0_13_513">
<rect width="64" height="64" fill="white"/>
</clipPath>
</defs>
</svg>
