<svg width="96" height="96" viewBox="0 0 96 96" fill="none" xmlns="http://www.w3.org/2000/svg">
<path d="M51.6573 43.7802H45.4698C45.5259 43.8408 45.561 43.9212 45.561 44.0103V48.0705H47.0552L43.3457 51.7798C43.6889 52.543 43.6965 53.3062 43.6965 53.3062V55.944L53.0266 47.5763C53.5003 47.1828 53.8024 46.5894 53.8024 45.9254C53.8024 44.7406 52.8421 43.7802 51.6573 43.7802Z" fill="#FFD5B3"/>
<path d="M45.3781 43.6708H42.6249L39.6953 46.6003C39.651 46.6446 39.651 46.7162 39.6953 46.7605L42.5772 49.6424H45.3781C45.5658 49.6424 45.7179 49.4903 45.7179 49.3026V44.0106C45.7179 43.8229 45.5658 43.6708 45.3781 43.6708Z" fill="#08375E"/>
<path d="M29.0091 54.1611C23.9504 54.1611 19.8496 58.262 19.8496 63.3207C19.8496 68.3794 23.9504 72.4803 29.0091 72.4803C34.0679 72.4803 38.1687 68.3794 38.1687 63.3207C38.1688 58.262 34.068 54.1611 29.0091 54.1611ZM29.0091 70.0377C25.3053 70.0377 22.2921 67.0244 22.2921 63.3207C22.2921 59.617 25.3053 56.6037 29.0091 56.6037C32.7129 56.6037 35.7262 59.617 35.7262 63.3207C35.7262 67.0244 32.713 70.0377 29.0091 70.0377Z" fill="#9EA7AF"/>
<path d="M29.009 70.8873C24.8367 70.8873 21.4424 67.4929 21.4424 63.3207C21.4424 59.1484 24.8367 55.754 29.009 55.754C33.1813 55.754 36.5757 59.1484 36.5757 63.3207C36.5757 67.4929 33.1814 70.8873 29.009 70.8873ZM29.009 57.4532C25.7738 57.4532 23.1416 60.0853 23.1416 63.3207C23.1416 66.556 25.7737 69.1881 29.009 69.1881C32.2444 69.1881 34.8765 66.556 34.8765 63.3207C34.8765 60.0853 32.2444 57.4532 29.009 57.4532Z" fill="#C5CCD3"/>
<path d="M65.6479 54.1611C60.5892 54.1611 56.4883 58.262 56.4883 63.3207C56.4883 68.3794 60.5891 72.4803 65.6479 72.4803C70.7065 72.4803 74.8073 68.3794 74.8073 63.3207C74.8074 58.262 70.7065 54.1611 65.6479 54.1611ZM65.6479 70.0377C61.9441 70.0377 58.9309 67.0244 58.9309 63.3207C58.9309 59.617 61.9441 56.6037 65.6479 56.6037C69.3516 56.6037 72.3649 59.617 72.3649 63.3207C72.3649 67.0244 69.3516 70.0377 65.6479 70.0377Z" fill="#9EA7AF"/>
<path d="M65.6477 70.8873C61.4754 70.8873 58.0811 67.4929 58.0811 63.3207C58.0811 59.1484 61.4754 55.754 65.6477 55.754C69.8199 55.754 73.2143 59.1484 73.2143 63.3207C73.2143 67.4929 69.8199 70.8873 65.6477 70.8873ZM65.6477 57.4532C62.4124 57.4532 59.7803 60.0853 59.7803 63.3207C59.7803 66.556 62.4124 69.1881 65.6477 69.1881C68.883 69.1881 71.5151 66.556 71.5151 63.3207C71.5151 60.0853 68.883 57.4532 65.6477 57.4532Z" fill="#C5CCD3"/>
<path d="M40.115 64.1313C40.115 63.9458 40.2332 63.7761 40.409 63.7091C40.4562 63.6911 40.4858 63.6442 40.4816 63.5938L40.3883 62.471H31.0055L38.9866 54.1676C38.9729 54.1587 38.96 54.1489 38.9481 54.137L37.781 52.9698L28.6334 62.4867C28.3333 62.7988 28.243 63.2183 28.3975 63.5814C28.5522 63.9445 28.9173 64.1701 29.3501 64.1701H40.115V64.1313Z" fill="#368C0E"/>
<path d="M68.633 48.7269C68.633 46.9452 67.1836 45.4958 65.402 45.4958H62.3731C62.5065 45.7382 62.5826 46.0161 62.5826 46.3117C62.5826 46.6355 62.49 46.9372 62.3321 47.1951H65.4021C66.2468 47.1951 66.9339 47.8822 66.9339 48.7269C66.9339 49.5716 66.2468 50.2588 65.4021 50.2588H43.0724C43.067 50.3103 43.0455 50.3583 43.0084 50.3956L42.6728 50.7311C42.6504 50.7536 42.6384 50.7844 42.6398 50.816C42.6411 50.8477 42.6557 50.8774 42.6799 50.8978C43.0313 51.1943 43.2611 51.5812 43.4121 51.958H57.1475L48.4544 61.0021C48.973 61.257 49.4171 61.6404 49.7461 62.1102L59.5043 51.958H60.0395L64.8609 63.6451C64.9962 63.9729 65.3128 64.1709 65.6467 64.1709C65.7547 64.1709 65.8644 64.1502 65.9704 64.1065C66.2983 63.9712 66.4963 63.6544 66.4962 63.3204C66.4962 63.2126 66.4755 63.1029 66.4319 62.997L61.8777 51.9579H65.4021C67.1836 51.958 68.633 50.5084 68.633 48.7269Z" fill="#368C0E"/>
<path d="M46.9617 60.542C45.4822 60.542 44.2174 61.4573 43.7002 62.7521V63.5652C43.7002 63.6278 43.7508 63.6785 43.8135 63.6785H46.151C46.4009 63.6785 46.6042 63.8818 46.6042 64.1317V65.5635C46.6042 65.8134 46.4009 66.0166 46.151 66.0166H44.0493C44.6804 66.951 45.7493 67.5654 46.9617 67.5654C48.9012 67.5654 50.4734 65.9932 50.4734 64.0537C50.4734 62.1143 48.9012 60.542 46.9617 60.542Z" fill="#9EA7AF"/>
<path d="M43.8143 53.3062C43.8143 53.3062 43.7971 51.6005 42.6658 50.7394L39.5576 53.8475L40.3778 63.7194C40.4375 63.6978 40.5008 63.6841 40.5676 63.6841H43.8143V53.3062Z" fill="#FFB98A"/>
<path d="M44.9229 30.1796C44.9229 32.7902 47.0394 34.9067 49.6501 34.9067C52.2608 34.9067 54.3771 32.7902 54.3771 30.1796V27.6847H44.9229V30.1796Z" fill="#FFD5B3"/>
<path d="M44.9353 27.6847C44.9272 27.799 44.9229 27.9144 44.9229 28.0309V30.1796C44.9229 32.0549 46.015 33.6751 47.5979 34.4391V27.6847H44.9353Z" fill="#775436"/>
<path d="M49.6481 22C47.0373 22 44.9209 23.3004 44.9209 25.911V26.0471H40.947C40.446 26.0471 40.04 26.4532 40.04 26.954C40.04 27.4549 40.446 27.8609 40.947 27.8609H54.375V26.0472V26.0415C54.375 23.4309 52.2587 22 49.6481 22Z" fill="#EF5050"/>
<path opacity="0.1" d="M49.6489 22C49.4172 22 49.1896 22.0108 48.9668 22.0313C51.2705 22.2506 53.0454 23.651 53.0454 26.0415V26.0472V27.8611H54.3757V26.0472V26.0415C54.3757 23.4309 52.2594 22 49.6489 22Z" fill="black"/>
<path d="M46.718 65.5635C46.718 65.875 46.4631 66.1299 46.1516 66.1299H40.5674C40.2559 66.1299 40.001 65.875 40.001 65.5635V64.1316C40.001 63.8201 40.2559 63.5652 40.5674 63.5652H46.1516C46.4631 63.5652 46.718 63.8201 46.718 64.1316V65.5635Z" fill="#F7931E"/>
<path d="M42.3363 65.5635V64.1316C42.3363 63.8201 42.5912 63.5652 42.9027 63.5652H40.5674C40.2559 63.5652 40.001 63.8201 40.001 64.1316V65.5635C40.001 65.875 40.2559 66.1299 40.5674 66.1299H42.9027C42.5912 66.1299 42.3363 65.875 42.3363 65.5635Z" fill="black"/>
<path d="M39.689 46.7672L46.709 39.7472C46.6083 39.8134 46.491 39.848 46.3727 39.848C46.2773 39.848 46.1811 39.8256 46.0922 39.7796C44.0992 38.7476 42.8613 36.7112 42.8613 34.4651C42.8613 34.0131 42.9124 33.5611 43.0133 33.1215C43.0348 33.0272 43.0787 32.9401 43.1402 32.8667C43.066 32.9253 42.9936 32.9873 42.9252 33.0558L34.4512 41.5298L39.689 46.7672Z" fill="#FCDB67"/>
<path opacity="0.1" d="M35.5915 42.6697L42.7537 35.5075C42.7106 35.2169 42.6879 34.9206 42.6879 34.6206C42.6879 34.1686 42.7389 33.7166 42.8399 33.2769C42.8648 33.1681 42.9204 33.0696 42.9978 32.9899C42.9738 33.0121 42.9485 33.0321 42.9252 33.0555L34.4512 41.5295L35.5915 42.6697Z" fill="black"/>
<path d="M62.2383 42.9255H58.7599L53.2532 39.9306L46.3782 33.0556C45.9187 32.5961 45.3052 32.343 44.651 32.343C44.0496 32.343 43.4734 32.5612 43.0278 32.9573C42.933 33.0417 42.8669 33.1534 42.8385 33.277C42.7376 33.7167 42.6865 34.1687 42.6865 34.6207C42.6865 36.8668 43.9245 38.9031 45.9173 39.9351C46.0061 39.9811 46.1024 40.0035 46.1978 40.0035C46.3562 40.0035 46.5126 39.9419 46.6298 39.8247L47.2498 39.2046L51.6652 42.7558C51.7043 42.7872 51.747 42.8137 51.7925 42.8347L58.9616 46.1348C59.0329 46.1675 59.1077 46.1846 59.1822 46.1888C59.1847 46.1911 59.1875 46.193 59.19 46.1952C59.2499 45.3122 59.9855 44.6118 60.8833 44.6118C61.8203 44.6118 62.5826 45.3741 62.5826 46.3109C62.5826 46.3455 62.5795 46.3794 62.5773 46.4133C63.0227 46.2702 63.3449 45.8529 63.3449 45.3599V44.0318C63.3451 43.4209 62.8497 42.9255 62.2383 42.9255Z" fill="#FFB98A"/>
<path d="M60.8818 48.1238C61.8829 48.1238 62.6943 47.3123 62.6943 46.3113C62.6943 45.3103 61.8829 44.4988 60.8818 44.4988C59.8808 44.4988 59.0693 45.3103 59.0693 46.3113C59.0693 47.3123 59.8808 48.1238 60.8818 48.1238Z" fill="#046699"/>
<path d="M52.1022 31.1203C51.6013 31.1203 51.1953 30.7141 51.1953 30.2133V29.3701C51.1953 28.8691 51.6013 28.4631 52.1022 28.4631C52.6032 28.4631 53.0092 28.8691 53.0092 29.3701V30.2133C53.0092 30.7143 52.6032 31.1203 52.1022 31.1203Z" fill="#775436"/>
<path d="M76.1504 73.3301H19.8496C19.3803 73.3301 19 72.9497 19 72.4805C19 72.0113 19.3803 71.6309 19.8496 71.6309H76.1504C76.6197 71.6309 77 72.0113 77 72.4805C77 72.9497 76.6197 73.3301 76.1504 73.3301Z" fill="#C5CCD3"/>
<path d="M43.0911 49.9947L34.5502 41.4539C34.5465 41.4502 34.5431 41.4462 34.5392 41.4425L32.0435 43.9383C31.0936 44.8883 31.0936 46.4426 32.0435 47.3926L38.8683 54.2173C38.9347 54.2837 39.0217 54.3169 39.1085 54.3169C39.1955 54.3169 39.2824 54.2837 39.3488 54.2175L43.091 50.4754C43.1547 50.4117 43.1905 50.3252 43.1905 50.2351C43.1906 50.1449 43.1548 50.0583 43.0911 49.9947Z" fill="#046699"/>
</svg>
