<svg width="38" height="38" viewBox="0 0 38 38" fill="none" xmlns="http://www.w3.org/2000/svg">
<path d="M9.66157 16.4973L6.5268 24.6856V24.6862C7.2939 27.6873 8.97998 30.3402 11.3668 32.3414L15.2999 30.8971C11.1223 27.2329 9.06033 21.8432 9.66157 16.4973Z" fill="#222222"/>
<path d="M5.4655 27.4573L3.06274 33.7313C2.77556 34.4806 3.52415 35.2218 4.29507 34.9381L9.36417 33.0769C7.66392 31.4609 6.34498 29.535 5.4655 27.4573Z" fill="#222222"/>
<path d="M16.3816 15.7336L12.8084 12.2345C9.91133 18.6342 11.8919 25.9491 17.3581 30.1415L21.1718 28.7409C17.8224 25.3537 16.0108 20.6256 16.3816 15.7336Z" fill="#222222"/>
<path d="M18.2509 17.5641C18.3977 21.542 20.1667 25.3012 23.1598 28.0104H23.1604L25.9557 26.9842C26.6085 26.7442 26.7872 25.9236 26.2965 25.443L18.2509 17.5641Z" fill="#222222"/>
<path d="M25.2427 20.5093C25.6166 20.8754 26.2227 20.8754 26.5965 20.5093C30.1979 16.9825 33.7047 18.0729 33.7397 18.0842C34.2412 18.2479 34.7834 17.9825 34.9506 17.4913C35.1179 17.0003 34.8467 16.4693 34.3451 16.3055C34.1564 16.244 29.6716 14.8464 25.2428 19.1835C24.8689 19.5496 24.8688 20.1432 25.2427 20.5093Z" fill="#222222"/>
<path d="M19.1507 13.2175C23.5797 8.88092 22.1521 4.48869 22.0896 4.3037C21.9223 3.81248 21.3799 3.5475 20.8783 3.71124C20.3773 3.87498 20.1061 4.40557 20.2733 4.89679C20.2848 4.93116 21.3984 8.36533 17.7965 11.892C17.425 12.2558 17.4212 12.8489 17.7965 13.2175C18.1723 13.5855 18.7779 13.5826 19.1507 13.2175Z" fill="#222222"/>
<path d="M21.1813 15.2063C20.8074 15.5724 20.8074 16.166 21.1813 16.5321C21.5517 16.8949 22.1536 16.8996 22.5294 16.5376C23.0239 16.2963 24.5589 17.2014 25.4119 16.3663C26.2558 15.5399 25.3592 14.0673 25.5832 13.5512C26.1109 13.3313 27.6141 14.2098 28.4579 13.3835C29.302 12.557 28.4053 11.0844 28.6293 10.5683C29.1578 10.3483 30.6601 11.2269 31.504 10.4005C32.348 9.57406 31.4514 8.10147 31.6753 7.58531C32.2007 7.36651 33.7068 8.24308 34.5502 7.41751C35.4028 6.58237 34.4803 5.07653 34.725 4.59475C35.0932 4.22827 35.0912 3.63887 34.7193 3.27458C34.3455 2.90847 33.7394 2.90847 33.3655 3.27458C32.611 4.01347 32.7586 5.05659 32.9007 5.80236C32.1392 5.66318 31.074 5.51863 30.3195 6.25746C29.565 6.99635 29.7126 8.03947 29.8547 8.78524C29.0932 8.64612 28.0279 8.50144 27.2735 9.2404C26.5189 9.97929 26.6666 11.0224 26.8087 11.7682C26.0471 11.629 24.9819 11.4844 24.2275 12.2233C23.4729 12.9622 23.6206 14.0053 23.7627 14.7511C23.0011 14.612 21.9358 14.4675 21.1813 15.2063Z" fill="#222222"/>
<path d="M26.5965 7.25183C26.9703 6.88573 26.9703 6.2922 26.5965 5.9261C26.2226 5.56 25.6166 5.56 25.2427 5.9261C24.8689 6.2922 24.8689 6.88573 25.2427 7.25183C25.6166 7.61794 26.2226 7.61794 26.5965 7.25183Z" fill="#222222"/>
<path d="M32.6885 14.1552C33.2172 14.1552 33.6458 13.7355 33.6458 13.2177C33.6458 12.7 33.2172 12.2803 32.6885 12.2803C32.1598 12.2803 31.7313 12.7 31.7313 13.2177C31.7313 13.7355 32.1598 14.1552 32.6885 14.1552Z" fill="#222222"/>
<path d="M30.6578 21.8351C30.284 22.2012 30.284 22.7947 30.6578 23.1608C31.0317 23.5269 31.6377 23.5269 32.0116 23.1608C32.3854 22.7947 32.3854 22.2012 32.0116 21.8351C31.6378 21.469 31.0317 21.469 30.6578 21.8351Z" fill="#222222"/>
<path d="M17.1199 8.57756C17.4937 8.21146 17.4937 7.61793 17.1199 7.25183C16.7461 6.88573 16.14 6.88573 15.7661 7.25183C15.3923 7.61787 15.3923 8.21146 15.7661 8.57756C16.14 8.94367 16.7461 8.94367 17.1199 8.57756Z" fill="#222222"/>
</svg>
