<svg width="38" height="38" viewBox="0 0 38 38" fill="none" xmlns="http://www.w3.org/2000/svg">
<path d="M19.007 9.16136C22.2152 9.16136 22.5951 9.17542 23.8568 9.23169C25.0293 9.28326 25.6625 9.48017 26.0846 9.64427C26.6428 9.85993 27.0461 10.1225 27.4636 10.5398C27.8857 10.9617 28.1436 11.3602 28.3594 11.9181C28.5236 12.3401 28.7205 12.9777 28.7721 14.1451C28.8284 15.411 28.8425 15.7908 28.8425 18.993C28.8425 22.1998 28.8284 22.5796 28.7721 23.8408C28.7205 25.0129 28.5236 25.6458 28.3594 26.0678C28.1436 26.6257 27.881 27.0289 27.4636 27.4462C27.0414 27.8681 26.6428 28.126 26.0846 28.3417C25.6625 28.5058 25.0246 28.7027 23.8568 28.7542C22.5904 28.8105 22.2105 28.8246 19.007 28.8246C15.7989 28.8246 15.419 28.8105 14.1573 28.7542C12.9848 28.7027 12.3516 28.5058 11.9295 28.3417C11.3713 28.126 10.968 27.8635 10.5505 27.4462C10.1284 27.0242 9.87043 26.6257 9.65468 26.0678C9.49052 25.6458 9.29353 25.0082 9.24194 23.8408C9.18566 22.5749 9.17159 22.1952 9.17159 18.993C9.17159 15.7861 9.18566 15.4063 9.24194 14.1451C9.29353 12.973 9.49052 12.3401 9.65468 11.9181C9.87043 11.3602 10.1331 10.957 10.5505 10.5398C10.9726 10.1178 11.3713 9.85993 11.9295 9.64427C12.3516 9.48017 12.9894 9.28326 14.1573 9.23169C15.419 9.17542 15.7989 9.16136 19.007 9.16136ZM19.007 7C15.7473 7 15.3393 7.01407 14.0588 7.07033C12.7831 7.12659 11.906 7.33288 11.1462 7.62825C10.3535 7.93768 9.68282 8.34558 9.01681 9.01602C8.3461 9.68177 7.93805 10.3522 7.62849 11.1399C7.33301 11.9041 7.12664 12.7761 7.07035 14.0514C7.01407 15.336 7 15.7439 7 19.0023C7 22.2608 7.01407 22.6687 7.07035 23.9486C7.12664 25.2239 7.33301 26.1006 7.62849 26.8601C7.93805 27.6525 8.3461 28.3229 9.01681 28.9887C9.68282 29.6544 10.3535 30.067 11.1415 30.3718C11.906 30.6671 12.7784 30.8734 14.0541 30.9297C15.3346 30.9859 15.7426 31 19.0023 31C22.2621 31 22.6701 30.9859 23.9506 30.9297C25.2263 30.8734 26.1034 30.6671 26.8632 30.3718C27.6512 30.067 28.3219 29.6544 28.9879 28.9887C29.6539 28.3229 30.0666 27.6525 30.3715 26.8648C30.667 26.1006 30.8734 25.2286 30.9296 23.9533C30.9859 22.6734 31 22.2655 31 19.007C31 15.7486 30.9859 15.3407 30.9296 14.0608C30.8734 12.7855 30.667 11.9088 30.3715 11.1492C30.076 10.3522 29.668 9.68177 28.9973 9.01602C28.3313 8.35026 27.6605 7.93768 26.8726 7.63294C26.1081 7.33757 25.2357 7.13128 23.9599 7.07501C22.6748 7.01407 22.2668 7 19.007 7Z" fill="white"/>
<path d="M19.007 12.8371C15.6019 12.8371 12.8394 15.5986 12.8394 19.0023C12.8394 22.4061 15.6019 25.1676 19.007 25.1676C22.4122 25.1676 25.1747 22.4061 25.1747 19.0023C25.1747 15.5986 22.4122 12.8371 19.007 12.8371ZM19.007 23.0016C16.7979 23.0016 15.0063 21.2106 15.0063 19.0023C15.0063 16.7941 16.7979 15.0031 19.007 15.0031C21.2161 15.0031 23.0078 16.7941 23.0078 19.0023C23.0078 21.2106 21.2161 23.0016 19.007 23.0016Z" fill="white"/>
<path d="M26.8585 12.5932C26.8585 13.3903 26.2113 14.0326 25.4186 14.0326C24.6213 14.0326 23.9787 13.3856 23.9787 12.5932C23.9787 11.7962 24.626 11.1539 25.4186 11.1539C26.2113 11.1539 26.8585 11.8009 26.8585 12.5932Z" fill="white"/>
</svg>
