<svg width="24" height="24" viewBox="0 0 24 24" fill="none" xmlns="http://www.w3.org/2000/svg">
<path d="M12.0053 4.62102C14.4114 4.62102 14.6963 4.63157 15.6426 4.67376C16.522 4.71244 16.9969 4.86013 17.3135 4.9832C17.7321 5.14495 18.0346 5.34186 18.3477 5.65482C18.6643 5.97128 18.8577 6.27017 19.0195 6.68861C19.1427 7.00508 19.2904 7.4833 19.3291 8.35886C19.3713 9.30826 19.3819 9.59308 19.3819 11.9947C19.3819 14.3999 19.3713 14.6847 19.3291 15.6306C19.2904 16.5097 19.1427 16.9844 19.0195 17.3008C18.8577 17.7193 18.6607 18.0217 18.3477 18.3346C18.0311 18.6511 17.7321 18.8445 17.3135 19.0063C16.9969 19.1293 16.5185 19.277 15.6426 19.3157C14.6928 19.3579 14.4079 19.3684 12.0053 19.3684C9.59918 19.3684 9.31425 19.3579 8.36799 19.3157C7.48857 19.277 7.01368 19.1293 6.69709 19.0063C6.27848 18.8445 5.97596 18.6476 5.66289 18.3346C5.3463 18.0182 5.15282 17.7193 4.99101 17.3008C4.86789 16.9844 4.72015 16.5062 4.68145 15.6306C4.63924 14.6812 4.62869 14.3964 4.62869 11.9947C4.62869 9.58957 4.63924 9.30475 4.68145 8.35886C4.72015 7.47978 4.86789 7.00508 4.99101 6.68861C5.15282 6.27017 5.34981 5.96777 5.66289 5.65482C5.97948 5.33835 6.27848 5.14495 6.69709 4.9832C7.01368 4.86013 7.49209 4.71244 8.36799 4.67376C9.31425 4.63157 9.59918 4.62102 12.0053 4.62102ZM12.0053 3C9.56048 3 9.25445 3.01055 8.29412 3.05274C7.33731 3.09494 6.6795 3.24966 6.10963 3.47119C5.51515 3.70326 5.01212 4.00918 4.51261 4.51201C4.00958 5.01133 3.70354 5.51416 3.47137 6.1049C3.24976 6.67806 3.09498 7.3321 3.05277 8.28853C3.01055 9.252 3 9.55792 3 12.0018C3 14.4456 3.01055 14.7515 3.05277 15.7115C3.09498 16.6679 3.24976 17.3255 3.47137 17.8951C3.70354 18.4894 4.00958 18.9922 4.51261 19.4915C5.01212 19.9908 5.51515 20.3003 6.10612 20.5288C6.6795 20.7503 7.33379 20.9051 8.2906 20.9473C9.25093 20.9895 9.55697 21 12.0018 21C14.4466 21 14.7526 20.9895 15.7129 20.9473C16.6697 20.9051 17.3275 20.7503 17.8974 20.5288C18.4884 20.3003 18.9914 19.9908 19.4909 19.4915C19.9904 18.9922 20.3 18.4894 20.5286 17.8986C20.7502 17.3255 20.905 16.6714 20.9472 15.715C20.9894 14.755 21 14.4491 21 12.0053C21 9.56144 20.9894 9.25552 20.9472 8.29557C20.905 7.33913 20.7502 6.68158 20.5286 6.11194C20.307 5.51416 20.001 5.01133 19.4979 4.51201C18.9984 4.0127 18.4954 3.70326 17.9044 3.4747C17.3311 3.25317 16.6768 3.09846 15.72 3.05626C14.7561 3.01055 14.4501 3 12.0053 3Z" fill="#222222"/>
<path d="M12.0053 7.37781C9.45144 7.37781 7.37952 9.44892 7.37952 12.0018C7.37952 14.5546 9.45144 16.6257 12.0053 16.6257C14.5591 16.6257 16.631 14.5546 16.631 12.0018C16.631 9.44892 14.5591 7.37781 12.0053 7.37781ZM12.0053 15.0012C10.3484 15.0012 9.00469 13.6579 9.00469 12.0018C9.00469 10.3456 10.3484 9.00234 12.0053 9.00234C13.6621 9.00234 15.0059 10.3456 15.0059 12.0018C15.0059 13.6579 13.6621 15.0012 12.0053 15.0012Z" fill="#222222"/>
<path d="M17.8939 7.19493C17.8939 7.7927 17.4084 8.27444 16.814 8.27444C16.2159 8.27444 15.734 7.78919 15.734 7.19493C15.734 6.59715 16.2195 6.11542 16.814 6.11542C17.4084 6.11542 17.8939 6.60067 17.8939 7.19493Z" fill="#222222"/>
</svg>
