<svg width="38" height="38" viewBox="0 0 38 38" fill="none" xmlns="http://www.w3.org/2000/svg">
<path d="M26 7H12C7.8 7 5 9.11765 5 14.0588V23.9412C5 28.8824 7.8 31 12 31H26C30.2 31 33 28.8824 33 23.9412V14.0588C33 9.11765 30.2 7 26 7ZM26.658 15.5976L22.276 19.1271C21.352 19.8753 20.176 20.2424 19 20.2424C17.824 20.2424 16.634 19.8753 15.724 19.1271L11.342 15.5976C10.894 15.2306 10.824 14.5529 11.174 14.1012C11.538 13.6494 12.196 13.5647 12.644 13.9318L17.026 17.4612C18.09 18.3224 19.896 18.3224 20.96 17.4612L25.342 13.9318C25.79 13.5647 26.462 13.6353 26.812 14.1012C27.176 14.5529 27.106 15.2306 26.658 15.5976Z" fill="white"/>
</svg>
