<svg width="64" height="64" viewBox="0 0 64 64" fill="none" xmlns="http://www.w3.org/2000/svg">
<path d="M32 63.9999C49.673 63.9999 63.9999 49.673 63.9999 32C63.9999 14.3269 49.673 0 32 0C14.3269 0 0 14.3269 0 32C0 49.673 14.3269 63.9999 32 63.9999Z" fill="#3C5A99"/>
<path d="M27.4722 26.4418V32.9385H19.906V41.7477H27.4722V63.6755C28.952 63.8846 30.4624 63.9998 31.9999 63.9998C33.5351 63.9998 35.0434 63.8846 36.5218 63.6755V41.7477H44.0688L45.1988 32.9385H36.5218V27.3143C36.5218 24.7636 37.2265 23.0256 40.8646 23.0256L45.5045 23.0235V15.1444C44.7024 15.037 41.9476 14.7974 38.7433 14.7974C32.0525 14.7981 27.4722 18.9026 27.4722 26.4418Z" fill="white"/>
</svg>
