<svg width="64" height="64" viewBox="0 0 64 64" fill="none" xmlns="http://www.w3.org/2000/svg">
<path d="M63.8073 18.8068C63.6516 15.4005 63.1104 13.0745 62.3196 11.0393C61.5161 8.90382 60.2567 6.9696 58.629 5.37102C57.0311 3.74329 55.0962 2.48249 52.9607 1.67893C50.9255 0.888889 48.5995 0.348444 45.1932 0.193422C41.7806 0.0376889 40.6905 0 32 0C23.3095 0 22.2194 0.0376889 18.8068 0.192711C15.4005 0.348444 13.0745 0.8896 11.0393 1.68036C8.90382 2.48391 6.9696 3.74329 5.37102 5.37102C3.74329 6.96889 2.48249 8.90311 1.67893 11.0386C0.888889 13.0745 0.348444 15.4005 0.193422 18.806C0.0369778 22.2194 0 23.3095 0 32C0 40.6912 0.0369778 41.7813 0.193422 45.194C0.348444 48.5995 0.8896 50.9262 1.68107 52.9614C2.48462 55.0962 3.744 57.0311 5.37173 58.629C6.9696 60.2567 8.90453 61.5168 11.04 62.3196C13.0752 63.1111 15.4012 63.6516 18.8075 63.8073C22.2201 63.963 23.3102 64 32.0007 64C40.6912 64 41.7813 63.9637 45.194 63.8073C48.6002 63.6516 50.9262 63.1111 52.9614 62.3196C57.2601 60.6578 60.6578 57.2594 62.3196 52.9614C63.1111 50.9255 63.6516 48.5995 63.8073 45.194C63.963 41.7806 64 40.6905 64 32C64 23.3095 63.963 22.2194 63.8073 18.8068ZM58.0473 44.9316C57.9051 48.0519 57.3838 49.7458 56.9458 50.8736C55.8692 53.6647 53.6633 55.8699 50.8729 56.9465C49.7458 57.3845 48.0512 57.9058 44.9308 58.048C41.5573 58.2023 40.5447 58.2343 32 58.2343C23.4546 58.2343 22.4427 58.2023 19.0692 58.048C15.9495 57.9058 14.2549 57.3845 13.1271 56.9465C11.7376 56.4331 10.4804 55.6153 9.44782 54.5522C8.38471 53.5196 7.56693 52.2631 7.05351 50.8729C6.61547 49.7458 6.09422 48.0512 5.952 44.9308C5.7984 41.5566 5.76569 40.5447 5.76569 32C5.76569 23.4553 5.7984 22.4434 5.952 19.0692C6.09493 15.9488 6.61547 14.2549 7.05351 13.1271C7.56693 11.7369 8.38471 10.4796 9.44782 9.44711C10.4804 8.384 11.7376 7.56622 13.1278 7.05351C14.2549 6.61476 15.9495 6.09422 19.0699 5.95129C22.4434 5.7984 23.4553 5.76569 32 5.76569C40.5447 5.76569 41.5559 5.7984 44.9301 5.95271C48.0505 6.09493 49.7444 6.61618 50.8722 7.05422C52.2617 7.56764 53.5189 8.38542 54.5515 9.44782C55.6146 10.4804 56.4324 11.7376 56.9451 13.1278C57.3838 14.2549 57.9051 15.9495 58.0473 19.0699C58.2009 22.4441 58.2336 23.456 58.2336 32.0007C58.2336 40.5454 58.2016 41.5566 58.0473 44.9316Z" fill="url(#paint0_linear_1_1429)"/>
<path d="M31.9993 15.5677C22.9241 15.5677 15.5669 22.9248 15.5669 32C15.5669 41.0752 22.9241 48.4324 31.9993 48.4324C41.0752 48.4324 48.4316 41.0752 48.4316 32C48.4316 22.9248 41.0752 15.5677 31.9993 15.5677ZM31.9993 42.6667C26.1091 42.666 21.3333 37.8909 21.3333 32C21.3333 26.1092 26.1084 21.3334 32 21.3334C37.8908 21.3341 42.6667 26.1092 42.6667 32C42.6667 37.8909 37.8908 42.6667 31.9993 42.6667Z" fill="url(#paint1_linear_1_1429)"/>
<path d="M52.9217 14.9185C52.9217 17.039 51.2022 18.7585 49.0817 18.7585C46.9605 18.7585 45.2417 17.039 45.2417 14.9185C45.2417 12.7972 46.9612 11.0785 49.0817 11.0785C51.2022 11.0785 52.9217 12.798 52.9217 14.9185Z" fill="url(#paint2_linear_1_1429)"/>
<defs>
<linearGradient id="paint0_linear_1_1429" x1="5.37088" y1="58.6289" x2="58.6292" y2="5.37066" gradientUnits="userSpaceOnUse">
<stop stop-color="#FFD600"/>
<stop offset="0.5" stop-color="#FF0100"/>
<stop offset="1" stop-color="#D800B9"/>
</linearGradient>
<linearGradient id="paint1_linear_1_1429" x1="9.37344" y1="54.6277" x2="54.6282" y2="9.37275" gradientUnits="userSpaceOnUse">
<stop stop-color="#FF6400"/>
<stop offset="0.5" stop-color="#FF0100"/>
<stop offset="1" stop-color="#FD0056"/>
</linearGradient>
<linearGradient id="paint2_linear_1_1429" x1="46.366" y1="17.6339" x2="51.7968" y2="12.2032" gradientUnits="userSpaceOnUse">
<stop stop-color="#F30072"/>
<stop offset="1" stop-color="#E50097"/>
</linearGradient>
</defs>
</svg>
