<svg width="38" height="38" viewBox="0 0 38 38" fill="none" xmlns="http://www.w3.org/2000/svg">
<path d="M35 19C35 10.1634 27.8366 3 19 3C10.1634 3 3 10.1634 3 19C3 26.9859 8.85094 33.6053 16.5 34.8056V23.625H12.4375V19H16.5V15.475C16.5 11.465 18.8888 9.25 22.5434 9.25C24.2934 9.25 26.125 9.5625 26.125 9.5625V13.5H24.1075C22.12 13.5 21.5 14.7334 21.5 16V19H25.9375L25.2281 23.625H21.5V34.8056C29.1491 33.6053 35 26.9859 35 19Z" fill="white"/>
<path d="M25.2281 23.625L25.9375 19H21.5V16C21.5 14.7347 22.12 13.5 24.1075 13.5H26.125V9.5625C26.125 9.5625 24.2941 9.25 22.5434 9.25C18.8888 9.25 16.5 11.465 16.5 15.475V19H12.4375V23.625H16.5V34.8056C18.1566 35.0648 19.8434 35.0648 21.5 34.8056V23.625H25.2281Z" fill="#006FB5"/>
</svg>
