<svg width="38" height="38" viewBox="0 0 38 38" fill="none" xmlns="http://www.w3.org/2000/svg">
<path d="M34.9036 12.4034C34.8258 10.7003 34.5552 9.53724 34.1598 8.51964C33.758 7.45191 33.1284 6.4848 32.3145 5.68551C31.5156 4.87164 30.5481 4.24124 29.4804 3.83947C28.4628 3.44444 27.2997 3.17422 25.5966 3.09671C23.8903 3.01884 23.3452 3 19 3C14.6548 3 14.1097 3.01884 12.4034 3.09636C10.7003 3.17422 9.53724 3.4448 8.51964 3.84018C7.45191 4.24196 6.4848 4.87164 5.68551 5.68551C4.87164 6.48444 4.24124 7.45156 3.83947 8.51929C3.44444 9.53724 3.17422 10.7003 3.09671 12.403C3.01849 14.1097 3 14.6548 3 19C3 23.3456 3.01849 23.8907 3.09671 25.597C3.17422 27.2997 3.4448 28.4631 3.84053 29.4807C4.24231 30.5481 4.872 31.5156 5.68587 32.3145C6.4848 33.1284 7.45227 33.7584 8.52 34.1598C9.5376 34.5556 10.7006 34.8258 12.4037 34.9036C14.11 34.9815 14.6551 35 19.0004 35C23.3456 35 23.8907 34.9819 25.597 34.9036C27.3001 34.8258 28.4631 34.5556 29.4807 34.1598C31.63 33.3289 33.3289 31.6297 34.1598 29.4807C34.5556 28.4628 34.8258 27.2997 34.9036 25.597C34.9815 23.8903 35 23.3452 35 19C35 14.6548 34.9815 14.1097 34.9036 12.4034ZM32.0236 25.4658C31.9525 27.026 31.6919 27.8729 31.4729 28.4368C30.9346 29.8324 29.8316 30.9349 28.4364 31.4732C27.8729 31.6923 27.0256 31.9529 25.4654 32.024C23.7787 32.1012 23.2724 32.1172 19 32.1172C14.7273 32.1172 14.2213 32.1012 12.5346 32.024C10.9748 31.9529 10.1275 31.6923 9.56356 31.4732C8.8688 31.2165 8.24018 30.8076 7.72391 30.2761C7.19236 29.7598 6.78347 29.1316 6.52676 28.4364C6.30773 27.8729 6.04711 27.0256 5.976 25.4654C5.8992 23.7783 5.88284 23.2724 5.88284 19C5.88284 14.7276 5.8992 14.2217 5.976 12.5346C6.04747 10.9744 6.30773 10.1275 6.52676 9.56356C6.78347 8.86844 7.19236 8.23982 7.72391 7.72356C8.24018 7.192 8.8688 6.78311 9.56391 6.52676C10.1275 6.30738 10.9748 6.04711 12.5349 5.97564C14.2217 5.8992 14.7276 5.88284 19 5.88284C23.2724 5.88284 23.778 5.8992 25.4651 5.97636C27.0252 6.04747 27.8722 6.30809 28.4361 6.52711C29.1308 6.78382 29.7595 7.19271 30.2757 7.72391C30.8073 8.24018 31.2162 8.8688 31.4725 9.56391C31.6919 10.1275 31.9525 10.9748 32.0236 12.5349C32.1004 14.222 32.1168 14.728 32.1168 19.0004C32.1168 23.2727 32.1008 23.7783 32.0236 25.4658Z" fill="white"/>
<path d="M18.9996 10.7838C14.462 10.7838 10.7835 14.4624 10.7835 19C10.7835 23.5376 14.462 27.2162 18.9996 27.2162C23.5376 27.2162 27.2158 23.5376 27.2158 19C27.2158 14.4624 23.5376 10.7838 18.9996 10.7838ZM18.9996 24.3333C16.0546 24.333 13.6667 21.9454 13.6667 19C13.6667 16.0546 16.0542 13.6667 19 13.6667C21.9454 13.667 24.3333 16.0546 24.3333 19C24.3333 21.9454 21.9454 24.3333 18.9996 24.3333Z" fill="white"/>
<path d="M29.4608 10.4592C29.4608 11.5195 28.6011 12.3792 27.5408 12.3792C26.4802 12.3792 25.6208 11.5195 25.6208 10.4592C25.6208 9.39862 26.4806 8.53924 27.5408 8.53924C28.6011 8.53924 29.4608 9.39898 29.4608 10.4592Z" fill="white"/>
</svg>
