<svg width="38" height="38" viewBox="0 0 38 38" fill="none" xmlns="http://www.w3.org/2000/svg">
<path d="M28.7043 14.8439C27.462 9.43512 22.6941 7 18.5059 7C18.5059 7 18.5059 7 18.4941 7C14.3177 7 9.53801 9.42341 8.29575 14.8322C6.91152 20.8732 10.6501 25.9893 14.0338 29.2088C15.2879 30.4029 16.8969 31 18.5059 31C20.1149 31 21.724 30.4029 22.9662 29.2088C26.3499 25.9893 30.0885 20.8849 28.7043 14.8439ZM18.5059 20.7093C16.4473 20.7093 14.7791 19.0585 14.7791 17.0215C14.7791 14.9844 16.4473 13.3337 18.5059 13.3337C20.5645 13.3337 22.2327 14.9844 22.2327 17.0215C22.2327 19.0585 20.5645 20.7093 18.5059 20.7093Z" fill="white"/>
</svg>
