<svg width="176" height="60" viewBox="0 0 176 60" fill="none" xmlns="http://www.w3.org/2000/svg">
<path fill-rule="evenodd" clip-rule="evenodd" d="M0 18.3649L8.02911 58.1383L169.256 60L176 11.1819L129.158 13.0936V2.46072C129.158 1.10321 128.054 0 126.693 0H120.184C118.823 0 117.72 1.10284 117.72 2.46039C117.72 1.10321 116.615 0.000673902 115.254 0.000673902H108.745C107.385 0.000673902 106.281 1.10321 106.281 2.46039V8.00274L100.805 0.953287C100.338 0.352544 99.6177 0.000673902 98.8569 0.000673902H93.3228C91.9624 0.000673902 90.8576 1.10321 90.8576 2.46039C90.8576 1.10287 89.7535 0 88.3927 0H81.8845C80.8126 0 79.9006 0.683882 79.5613 1.63717C79.5284 1.54405 79.4893 1.45232 79.4443 1.3623C79.0269 0.528158 78.1718 0 77.2378 0H69.7396C68.9572 0 68.2222 0.370682 67.7567 0.998463L62.9271 7.51291L57.2706 0.867688C56.8028 0.318324 56.115 0 55.3923 0H49.3073C47.9463 0 46.8418 1.10321 46.8418 2.46072V16.4532L0 18.3649ZM79.4196 3.60601C79.3586 3.72205 79.2879 3.83364 79.2077 3.94045L74.4996 10.1811H76.9541C78.3155 10.1811 79.4196 11.2826 79.4196 12.6415V3.60601Z" fill="#FFCE42"/>
<path fill-rule="evenodd" clip-rule="evenodd" d="M70.448 24.5919C69.8431 24.5919 69.3519 24.1026 69.3519 23.499V14.7334L63.9368 21.911C63.7344 22.1792 63.4234 22.3383 63.0873 22.3468C63.0787 22.3468 63.0701 22.3468 63.0615 22.3468C62.7359 22.3468 62.4273 22.2032 62.2189 21.9531L56.9124 15.582V23.499C56.9124 24.1026 56.4212 24.5919 55.8173 24.5919H49.3088C48.7032 24.5919 48.2129 24.1026 48.2129 23.499V2.46097C48.2129 1.85642 48.7032 1.36646 49.3088 1.36646H55.3934C55.7139 1.36646 56.0197 1.50815 56.2274 1.75231L63.003 9.71145L68.8599 1.80996C69.0659 1.53152 69.3924 1.36646 69.7405 1.36646H77.2389C77.6542 1.36646 78.0342 1.60107 78.2202 1.97266C78.4047 2.34304 78.3641 2.78681 78.1144 3.11768L71.7548 11.547H76.9555C77.5604 11.547 78.0514 12.0372 78.0514 12.6415V23.499C78.0514 24.1026 77.5604 24.5919 76.9555 24.5919H70.448Z" fill="white"/>
<path fill-rule="evenodd" clip-rule="evenodd" d="M70.4468 23.9359C70.2046 23.9359 70.0081 23.7399 70.0081 23.499V12.7714L63.4103 21.518C63.3291 21.6237 63.2043 21.6882 63.0707 21.6918C63.0673 21.6918 63.063 21.6918 63.0604 21.6918C62.9303 21.6918 62.8054 21.6325 62.7236 21.5334L56.254 13.7663V23.499C56.254 23.7399 56.0582 23.9359 55.8162 23.9359H49.3076C49.0665 23.9359 48.8691 23.7399 48.8691 23.499V2.461C48.8691 2.22018 49.0665 2.02319 49.3076 2.02319H55.3922C55.5197 2.02319 55.6429 2.07916 55.7257 2.17801L63.0363 10.7665L69.3861 2.20039C69.4689 2.0887 69.6007 2.02319 69.7393 2.02319H77.2378C77.4041 2.02319 77.5567 2.118 77.6316 2.26495C77.7039 2.4136 77.6875 2.5915 77.5884 2.72397L70.4363 12.2049C70.4399 12.2049 76.9544 12.2049 76.9544 12.2049C77.1955 12.2049 77.3939 12.4 77.3939 12.6415V23.499C77.3939 23.7399 77.1955 23.9359 76.9544 23.9359H70.4468Z" fill="#1B1918"/>
<path fill-rule="evenodd" clip-rule="evenodd" d="M49.3082 23.5369L49.2695 2.46096L55.3928 2.42212L63.0894 11.4439L69.7089 2.43759L77.2384 2.42212L63.091 21.2764L55.7867 12.5805L55.8554 23.499C55.8554 23.5188 55.8383 23.5369 55.8168 23.5369H49.3082ZM70.4474 23.5369L70.4085 12.6415L76.955 12.6029L76.9937 23.499C76.9937 23.5188 76.9765 23.5369 76.955 23.5369H70.4474Z" fill="#E84026"/>
<path fill-rule="evenodd" clip-rule="evenodd" d="M151.215 53.9035C150.449 53.9035 149.728 53.5493 149.26 52.944L146.151 48.9132V51.4436C146.151 52.8013 145.048 53.9035 143.685 53.9035H137.178C135.817 53.9035 134.713 52.8013 134.713 51.4436V30.4056C134.713 29.048 135.817 27.9457 137.178 27.9457H142.712C143.473 27.9457 144.193 28.2975 144.66 28.8985L150.136 35.9477V30.4056C150.136 29.048 151.24 27.9457 152.6 27.9457H159.109C160.47 27.9457 161.575 29.048 161.575 30.4056V41.9981C161.575 43.3556 160.47 44.457 159.109 44.457H156.745L161.002 49.9365C161.578 50.6785 161.681 51.6818 161.266 52.5262C160.853 53.3687 159.994 53.9035 159.053 53.9035H151.215Z" fill="#1B1918"/>
<path fill-rule="evenodd" clip-rule="evenodd" d="M38.0288 53.904C36.6665 53.904 35.5628 52.8025 35.5628 51.4441V46.7669L32.6111 50.6788C32.1587 51.279 31.4556 51.6401 30.7008 51.6582C30.681 51.6589 30.6621 51.6589 30.6423 51.6589C29.91 51.6589 29.2156 51.334 28.7451 50.7709L25.8631 47.3094V51.4441C25.8631 52.8025 24.7594 53.9039 23.3981 53.9039H16.8895C15.5283 53.9039 14.4238 52.8025 14.4238 51.4441V30.406C14.4238 29.0483 15.5283 27.9452 16.8895 27.9452H22.9742C23.6969 27.9452 24.3846 28.2634 24.8525 28.8127L30.5089 35.4579L35.3389 28.9435C35.8041 28.3158 36.539 27.9452 37.3213 27.9452H44.8197C45.7537 27.9452 46.6092 28.473 47.0262 29.3072C47.4432 30.1421 47.3511 31.1401 46.7894 31.8857L42.0816 38.126H44.5364C45.8976 38.126 47.0014 39.2274 47.0014 40.5866V51.4441C47.0014 52.8025 45.8976 53.9039 44.5364 53.9039L38.0288 53.904Z" fill="#1B1918"/>
<path fill-rule="evenodd" clip-rule="evenodd" d="M38.0298 52.5374C37.425 52.5374 36.9338 52.0482 36.9338 51.4446V42.6789L31.5187 49.8565C31.3163 50.1247 31.0052 50.2838 30.6692 50.2924C30.6606 50.2924 30.652 50.2924 30.6434 50.2924C30.3178 50.2924 30.0092 50.1488 29.8008 49.8987L24.4943 43.5276V51.4446C24.4943 52.0482 24.0031 52.5374 23.3992 52.5374H16.8906C16.285 52.5374 15.7948 52.0482 15.7948 51.4446V30.4065C15.7948 29.802 16.285 29.312 16.8906 29.312H22.9753C23.2958 29.312 23.6016 29.4537 23.8093 29.6979L30.5849 37.657L36.4418 29.7555C36.6478 29.4771 36.9743 29.312 37.3224 29.312H44.8208C45.2361 29.312 45.6161 29.5466 45.8021 29.9182C45.9866 30.2886 45.946 30.7324 45.6963 31.0632L39.3367 39.4925H44.5375C45.1423 39.4925 45.6333 39.9828 45.6333 40.5871V51.4446C45.6333 52.0482 45.1423 52.5374 44.5375 52.5374H38.0298Z" fill="#FFCE42"/>
<path fill-rule="evenodd" clip-rule="evenodd" d="M38.0308 51.8809C37.7886 51.8809 37.5921 51.6849 37.5921 51.444V40.7164L30.9943 49.463C30.9132 49.5687 30.7883 49.6333 30.6546 49.6369C30.6513 49.6369 30.647 49.6369 30.6444 49.6369C30.5143 49.6369 30.3894 49.5775 30.3076 49.4784L23.8379 41.7113V51.444C23.8379 51.6849 23.6422 51.8809 23.4002 51.8809H16.8916C16.6505 51.8809 16.4531 51.6849 16.4531 51.444V30.406C16.4531 30.1652 16.6505 29.9682 16.8916 29.9682H22.9762C23.1037 29.9682 23.2269 30.0242 23.3097 30.123L30.6202 38.7115L36.9701 30.1454C37.0529 30.0337 37.1847 29.9682 37.3234 29.9682H44.8217C44.9881 29.9682 45.1406 30.063 45.2156 30.21C45.2879 30.3586 45.2715 30.5365 45.1724 30.669L38.0203 40.1499C38.0239 40.1499 44.5384 40.1499 44.5384 40.1499C44.7795 40.1499 44.9779 40.345 44.9779 40.5865V51.444C44.9779 51.6849 44.7795 51.8809 44.5384 51.8809H38.0308Z" fill="#1B1918"/>
<path d="M16.8903 51.4819L16.8517 30.406L22.9749 30.3672L30.6715 39.3889L37.291 30.3827L44.8205 30.3672L30.6731 49.2215L23.3688 40.5256L23.4376 51.4441C23.4376 51.4639 23.4204 51.4819 23.3989 51.4819H16.8903ZM38.0295 51.4819L37.9906 40.5866L44.5371 40.548L44.5758 51.4441C44.5758 51.4639 44.5586 51.4819 44.5371 51.4819H38.0295Z" fill="url(#paint0_linear_1_819)"/>
<path fill-rule="evenodd" clip-rule="evenodd" d="M151.216 52.5374C150.876 52.5374 150.555 52.38 150.348 52.1108L144.784 44.8989V51.4436C144.784 52.0472 144.292 52.5374 143.687 52.5374H137.179C136.575 52.5374 136.084 52.0472 136.084 51.4436V30.4056C136.084 29.8013 136.575 29.312 137.179 29.312H142.713C143.052 29.312 143.371 29.4685 143.578 29.7358L151.506 39.9415V30.4056C151.506 29.8013 151.997 29.312 152.602 29.312H159.11C159.716 29.312 160.207 29.8013 160.207 30.4056V41.9981C160.207 42.6008 159.716 43.0908 159.11 43.0908H153.952L159.921 50.7731C160.177 51.1033 160.221 51.5494 160.039 51.9233C159.854 52.3 159.473 52.5374 159.054 52.5374H151.216Z" fill="#FFCE42"/>
<path fill-rule="evenodd" clip-rule="evenodd" d="M151.214 51.8809C151.077 51.8809 150.949 51.818 150.866 51.7099L144.125 42.9709V51.4441C144.125 51.6839 143.927 51.8809 143.685 51.8809H137.177C136.936 51.8809 136.738 51.6839 136.738 51.4441V30.406C136.738 30.1645 136.936 29.9684 137.177 29.9684H142.711C142.845 29.9684 142.973 30.0311 143.056 30.1378L152.162 41.8583V30.406C152.162 30.1645 152.358 29.9684 152.599 29.9684H159.108C159.35 29.9684 159.546 30.1645 159.546 30.406V41.9986C159.546 42.2392 159.35 42.4352 159.108 42.4352H152.609L159.399 51.1759C159.502 51.3073 159.519 51.4862 159.445 51.6358C159.372 51.7864 159.22 51.8809 159.052 51.8809H151.214Z" fill="#1B1918"/>
<path d="M152.602 42.0365L152.563 30.406L159.11 30.3674L159.15 41.9986C159.15 42.0191 159.132 42.0365 159.11 42.0365H152.602ZM151.216 51.4819L143.658 41.7106L143.726 51.4441L137.179 51.4819L137.141 30.406L142.713 30.3674L159.085 51.421C159.094 51.4312 159.096 51.4484 159.089 51.4612C159.083 51.4734 159.07 51.4819 159.054 51.4819H151.216Z" fill="url(#paint1_linear_1_819)"/>
<path fill-rule="evenodd" clip-rule="evenodd" d="M81.7584 53.9032C80.397 53.9032 79.2933 52.8018 79.2933 51.4441V38.6548H76.5509C75.1897 38.6548 74.0859 37.5527 74.0859 36.1942V30.4053C74.0859 29.0476 75.1897 27.9462 76.5509 27.9462H93.3321C94.6933 27.9462 95.798 29.0476 95.798 30.4053V36.1942C95.798 37.5527 94.6933 38.6548 93.3321 38.6548H90.5913V51.4441C90.5913 52.8018 89.4869 53.9032 88.1253 53.9032H81.7584Z" fill="#1B1918"/>
<path fill-rule="evenodd" clip-rule="evenodd" d="M81.7596 52.5369C81.1547 52.5369 80.6644 52.0469 80.6644 51.444V37.8604C80.6644 37.6505 80.7232 37.4545 80.8256 37.2887H76.5522C75.948 37.2887 75.457 36.7985 75.457 36.1942V30.4053C75.457 29.8024 75.948 29.3124 76.5522 29.3124H93.3333C93.9391 29.3124 94.4291 29.8024 94.4291 30.4053V36.1942C94.4291 36.7985 93.9391 37.2887 93.3333 37.2887H89.0606C89.1633 37.4545 89.2227 37.6505 89.2227 37.8604V51.444C89.2227 52.0469 88.7324 52.5369 88.1266 52.5369H81.7596Z" fill="#FFCE42"/>
<path fill-rule="evenodd" clip-rule="evenodd" d="M76.553 36.6318C76.3117 36.6318 76.1152 36.4357 76.1152 36.1942V30.4053C76.1152 30.1645 76.3117 29.9684 76.553 29.9684H93.3341C93.5761 29.9684 93.7726 30.1645 93.7726 30.4053V36.1942C93.7726 36.4357 93.5761 36.6318 93.3341 36.6318H76.553ZM81.7604 51.8809C81.5184 51.8809 81.3219 51.6849 81.3219 51.4441V37.8604C81.3219 37.6188 81.5184 37.4228 81.7604 37.4228H88.1274C88.3697 37.4228 88.5661 37.6188 88.5661 37.8604V51.4441C88.5661 51.6849 88.3697 51.8809 88.1274 51.8809H81.7604Z" fill="#1B1918"/>
<path d="M76.5506 36.233L76.5136 30.4056L93.3317 30.3677L93.3704 36.1945C93.3704 36.2159 93.3525 36.233 93.3317 36.233H76.5506ZM81.758 51.4815L81.7191 37.8607L88.125 37.8221L88.1639 51.4443C88.1639 51.4651 88.1458 51.4815 88.125 51.4815H81.758Z" fill="url(#paint2_linear_1_819)"/>
<path fill-rule="evenodd" clip-rule="evenodd" d="M98.2639 53.9039C96.9026 53.9039 95.7988 52.8025 95.7988 51.4441V30.406C95.7988 29.0483 96.9026 27.9452 98.2639 27.9452H104.772C106.133 27.9452 107.237 29.0483 107.237 30.406V51.4441C107.237 52.8025 106.133 53.9039 104.772 53.9039H98.2639Z" fill="#1B1918"/>
<path fill-rule="evenodd" clip-rule="evenodd" d="M98.2643 52.5374C97.6594 52.5374 97.1682 52.0482 97.1682 51.4446V30.4065C97.1682 29.802 97.6594 29.312 98.2643 29.312H104.773C105.377 29.312 105.868 29.802 105.868 30.4065V51.4446C105.868 52.0482 105.377 52.5374 104.773 52.5374H98.2643Z" fill="#FFCE42"/>
<path fill-rule="evenodd" clip-rule="evenodd" d="M98.2629 51.8809C98.0206 51.8809 97.8242 51.6849 97.8242 51.444V30.406C97.8242 30.1652 98.0206 29.9682 98.2629 29.9682H104.771C105.014 29.9682 105.209 30.1652 105.209 30.406V51.444C105.209 51.6849 105.014 51.8809 104.771 51.8809H98.2629Z" fill="#1B1918"/>
<path d="M98.2635 51.4819L98.2246 30.406L104.772 30.3672L104.811 51.4441C104.811 51.4639 104.793 51.4819 104.772 51.4819H98.2635Z" fill="url(#paint3_linear_1_819)"/>
<path fill-rule="evenodd" clip-rule="evenodd" d="M68.2439 28.8625C68.9612 29.3025 69.6298 29.8012 70.246 30.3503C70.4123 30.3458 70.5909 30.3786 70.7871 30.4618C72.233 31.0733 74.8078 34.952 75.3671 36.8444C75.5464 37.4526 75.2001 37.6446 74.608 37.6412C74.8012 38.4449 74.9245 39.2692 74.974 40.1045C75.0951 40.219 75.1986 40.3687 75.2788 40.5667C75.868 42.0197 74.9405 46.5788 73.9947 48.3112C73.6914 48.8663 73.3115 48.76 72.898 48.3437C72.4569 49.0608 71.9567 49.73 71.4061 50.3465C71.4098 50.5112 71.377 50.6874 71.2946 50.8812C70.6813 52.3244 66.7948 54.8935 64.8986 55.4511C64.2936 55.6296 64.0994 55.2899 64.0999 54.7073C63.2895 54.9017 62.4582 55.0261 61.6158 55.0749C61.5031 55.1893 61.3581 55.2871 61.1684 55.3634C59.7122 55.9513 55.1438 55.0251 53.4077 54.0817C52.8572 53.7826 52.9551 53.4085 53.3619 53.0002C52.6378 52.5567 51.9631 52.0535 51.3418 51.4994C51.1844 51.4992 51.0164 51.4652 50.8323 51.3874C49.3861 50.7756 46.8117 46.8972 46.2525 45.0051C46.0754 44.4056 46.4095 44.21 46.9857 44.2078C46.791 43.3956 46.6672 42.5632 46.6193 41.7189C46.5093 41.608 46.4152 41.4661 46.3408 41.2827C45.7517 39.8295 46.6795 35.2704 47.6249 33.5379C47.9248 32.9884 48.2999 33.0868 48.7096 33.4927C49.1536 32.7726 49.658 32.1009 50.2129 31.4826C50.2125 31.3239 50.2461 31.1537 50.3248 30.968C50.9381 29.5248 54.8245 26.9557 56.7208 26.3979C57.326 26.2199 57.5202 26.5596 57.5195 27.1425C58.3284 26.9498 59.1578 26.8277 59.9979 26.7797C60.1115 26.663 60.2584 26.5636 60.451 26.4858C61.9073 25.898 66.4756 26.8239 68.2117 27.7672C68.7679 28.0697 68.6615 28.449 68.2439 28.8625Z" fill="#1B1918"/>
<path fill-rule="evenodd" clip-rule="evenodd" d="M57.8814 31.4117C52.6173 33.0289 49.6631 38.6012 51.2841 43.854C52.9051 49.1071 58.4884 52.0551 63.7529 50.4379C69.0166 48.82 71.9707 43.2484 70.3498 37.9949C68.729 32.7421 63.1455 29.7937 57.8814 31.4117Z" fill="#FEFDF4"/>
<path d="M59.1802 35.6549C56.2638 36.5508 54.6273 39.6373 55.5255 42.5474C56.4235 45.4573 59.5166 47.0907 62.4324 46.1943C65.3486 45.2985 66.9853 42.2119 66.0873 39.3018C65.1892 36.392 62.0961 34.7587 59.1802 35.6549Z" fill="url(#paint4_linear_1_819)"/>
<path fill-rule="evenodd" clip-rule="evenodd" d="M65.6695 35.1703C65.6695 35.1703 66.6232 35.9314 67.1022 37.1733C67.5816 38.4158 66.2534 38.697 64.4461 39.1206C62.6397 39.5451 62.4642 39.1736 62.1946 38.2925C61.9244 37.411 62.0218 35.8859 62.2962 34.6688C62.5705 33.452 64.5455 34.2756 65.6695 35.1703ZM56.8579 34.832C56.8579 34.832 57.8874 34.1776 59.2202 34.1264C60.5528 34.0752 60.391 35.4199 60.2093 37.2638C60.0279 39.1067 59.6195 39.1524 58.6961 39.1224C57.773 39.0927 56.3581 38.5082 55.2931 37.8561C54.2271 37.2041 55.6461 35.6046 56.8579 34.832ZM53.6002 43.3496C53.6002 43.3496 53.2345 42.1872 53.5323 40.8895C53.8299 39.5922 55.0888 40.0981 56.8254 40.7533C58.5613 41.4084 58.4994 41.8141 58.2301 42.6955C57.9605 43.5774 57.0269 44.7879 56.1183 45.6445C55.2096 46.5018 54.032 44.7179 53.6002 43.3496ZM60.5192 48.2153C60.5192 48.2153 59.2983 48.2088 58.1504 47.5307C57.0026 46.8527 57.8696 45.8101 59.0235 44.3588C60.1772 42.9082 60.5452 43.0912 61.3048 43.6152C62.0646 44.1397 62.9356 45.3963 63.4768 46.5205C64.0181 47.6448 61.9571 48.2214 60.5192 48.2153ZM67.9284 43.1171C67.9284 43.1171 67.6449 44.3025 66.7228 45.2642C65.8009 46.2255 64.9797 45.1471 63.8254 43.6961C62.6715 42.2455 62.9332 41.9295 63.6174 41.3097C64.3017 40.6905 65.7255 40.1291 66.9452 39.8581C68.1655 39.5874 68.2607 41.7212 67.9284 43.1171ZM58.3492 32.7321C53.8158 34.1253 51.2719 38.9236 52.6677 43.4476C54.0639 47.9712 58.8723 50.5101 63.4057 49.1173C67.9394 47.7244 70.4834 42.9259 69.0872 38.402C67.691 33.8778 62.8829 31.3391 58.3492 32.7321Z" fill="#1B1918"/>
<path fill-rule="evenodd" clip-rule="evenodd" d="M128.562 28.7282C129.287 29.1731 129.963 29.6773 130.586 30.2326C130.755 30.228 130.935 30.2611 131.134 30.3453C132.596 30.9636 135.199 34.8855 135.765 36.799C135.946 37.4139 135.596 37.608 134.997 37.6046C135.192 38.4173 135.317 39.2507 135.367 40.0953C135.49 40.2111 135.594 40.3625 135.675 40.5628C136.271 42.0319 135.333 46.6418 134.377 48.3935C134.07 48.9547 133.686 48.8473 133.268 48.4263C132.822 49.1514 132.316 49.828 131.76 50.4514C131.763 50.6179 131.73 50.7961 131.647 50.992C131.027 52.4513 127.097 55.049 125.18 55.6129C124.568 55.7933 124.371 55.4499 124.372 54.8607C123.553 55.0574 122.712 55.1831 121.86 55.2325C121.746 55.3481 121.6 55.447 121.408 55.5242C119.935 56.1186 115.316 55.1821 113.561 54.2282C113.004 53.9258 113.103 53.5475 113.514 53.1347C112.782 52.6862 112.1 52.1774 111.472 51.6171C111.313 51.6169 111.143 51.5826 110.957 51.5039C109.494 50.8853 106.891 46.9636 106.326 45.0505C106.147 44.4444 106.485 44.2465 107.067 44.2444C106.87 43.4231 106.745 42.5815 106.697 41.7277C106.585 41.6155 106.49 41.4721 106.415 41.2867C105.819 39.8173 106.758 35.2074 107.713 33.4556C108.017 32.9 108.396 32.9995 108.81 33.41C109.259 32.6818 109.769 32.0027 110.33 31.3774C110.33 31.217 110.364 31.0449 110.443 30.8572C111.064 29.3978 114.993 26.8002 116.911 26.2361C117.523 26.0562 117.719 26.3996 117.718 26.989C118.536 26.7942 119.375 26.6707 120.224 26.6222C120.339 26.5042 120.488 26.4037 120.682 26.325C122.155 25.7307 126.774 26.6668 128.529 27.6207C129.092 27.9266 128.984 28.3101 128.562 28.7282Z" fill="#1B1918"/>
<path fill-rule="evenodd" clip-rule="evenodd" d="M118.085 31.3058C112.762 32.941 109.775 38.5754 111.414 43.8866C113.053 49.1983 118.699 52.1791 124.022 50.5438C129.344 48.9079 132.331 43.2742 130.692 37.9623C129.053 32.6511 123.408 29.6698 118.085 31.3058Z" fill="#FEFDF4"/>
<path d="M119.397 35.5961C116.449 36.502 114.794 39.6229 115.702 42.5654C116.61 45.5077 119.738 47.1593 122.686 46.2529C125.635 45.3471 127.289 42.2261 126.381 39.2837C125.473 36.3415 122.346 34.6901 119.397 35.5961Z" fill="url(#paint5_linear_1_819)"/>
<path fill-rule="evenodd" clip-rule="evenodd" d="M125.957 35.1063C125.957 35.1063 126.922 35.8758 127.406 37.1315C127.891 38.3878 126.548 38.6722 124.72 39.1006C122.894 39.5297 122.716 39.1542 122.444 38.2632C122.17 37.3719 122.269 35.8298 122.546 34.5992C122.824 33.3688 124.821 34.2016 125.957 35.1063ZM117.047 34.7641C117.047 34.7641 118.088 34.1024 119.436 34.0507C120.783 33.9989 120.62 35.3586 120.436 37.223C120.253 39.0865 119.84 39.1327 118.906 39.1024C117.973 39.0723 116.542 38.4813 115.465 37.8219C114.387 37.1627 115.822 35.5454 117.047 34.7641ZM113.754 43.3766C113.754 43.3766 113.384 42.2012 113.685 40.8892C113.986 39.5774 115.259 40.0889 117.015 40.7514C118.77 41.4139 118.707 41.8239 118.435 42.7152C118.162 43.6069 117.218 44.8309 116.3 45.6971C115.381 46.5639 114.19 44.7602 113.754 43.3766ZM120.749 48.2965C120.749 48.2965 119.515 48.2899 118.354 47.6043C117.194 46.9187 118.07 45.8645 119.237 44.3971C120.404 42.9303 120.776 43.1153 121.544 43.6452C122.312 44.1755 123.193 45.4461 123.74 46.5829C124.287 47.7196 122.203 48.3026 120.749 48.2965ZM128.241 43.1415C128.241 43.1415 127.955 44.3401 127.022 45.3125C126.09 46.2846 125.26 45.1941 124.093 43.727C122.926 42.2602 123.19 41.9407 123.882 41.314C124.574 40.6879 126.014 40.1203 127.247 39.8462C128.481 39.5725 128.577 41.7301 128.241 43.1415ZM118.555 32.6409C113.971 34.0496 111.399 38.9014 112.811 43.4757C114.222 48.0497 119.084 50.6169 123.668 49.2085C128.252 47.8001 130.825 42.9482 129.413 38.374C128.001 33.7994 123.14 31.2324 118.555 32.6409Z" fill="#1B1918"/>
<path fill-rule="evenodd" clip-rule="evenodd" d="M107.361 24.5924C107.02 24.5924 106.7 24.4349 106.492 24.1657L100.928 16.9538V23.4986C100.928 24.1021 100.437 24.5924 99.8313 24.5924H93.3237C92.7195 24.5924 92.2285 24.1021 92.2285 23.4986V2.46051C92.2285 1.85619 92.7195 1.36694 93.3237 1.36694H98.8576C99.1961 1.36694 99.5159 1.52344 99.7227 1.79069L107.651 11.9965V2.46051C107.651 1.85619 108.142 1.36694 108.746 1.36694H115.254C115.86 1.36694 116.351 1.85619 116.351 2.46051V14.0531C116.351 14.6557 115.86 15.1457 115.254 15.1457H110.097L116.066 22.828C116.321 23.1582 116.366 23.6043 116.183 23.9783C115.999 24.3549 115.617 24.5924 115.199 24.5924H107.361Z" fill="white"/>
<path fill-rule="evenodd" clip-rule="evenodd" d="M107.361 23.9354C107.224 23.9354 107.095 23.8725 107.012 23.7644L100.271 15.0254V23.4986C100.271 23.7384 100.073 23.9354 99.8311 23.9354H93.3235C93.0822 23.9354 92.8848 23.7384 92.8848 23.4986V2.46052C92.8848 2.21896 93.0822 2.02295 93.3235 2.02295H98.8574C98.9918 2.02295 99.1193 2.08559 99.2028 2.19229L108.308 13.9128V2.46052C108.308 2.21896 108.505 2.02295 108.746 2.02295H115.254C115.497 2.02295 115.693 2.21896 115.693 2.46052V14.0531C115.693 14.2937 115.497 14.4897 115.254 14.4897H108.755L115.545 23.2303C115.649 23.3618 115.665 23.5407 115.592 23.6903C115.518 23.8409 115.366 23.9354 115.198 23.9354H107.361Z" fill="#1B1918"/>
<path fill-rule="evenodd" clip-rule="evenodd" d="M108.744 14.0909L108.706 2.46048L115.253 2.42188L115.292 14.053C115.292 14.0735 115.274 14.0909 115.253 14.0909H108.744ZM107.359 23.5364L99.8002 13.7651L99.8683 23.4985L93.322 23.5364L93.2831 2.46048L98.8559 2.42188L115.228 23.4754C115.237 23.4856 115.238 23.5028 115.231 23.5157C115.225 23.5278 115.212 23.5364 115.197 23.5364H107.359Z" fill="#EE7005"/>
<path fill-rule="evenodd" clip-rule="evenodd" d="M120.186 24.5919C119.581 24.5919 119.09 24.1026 119.09 23.499V2.46097C119.09 1.85642 119.581 1.36646 120.186 1.36646H126.694C127.299 1.36646 127.789 1.85642 127.789 2.46097V23.499C127.789 24.1026 127.299 24.5919 126.694 24.5919H120.186Z" fill="white"/>
<path fill-rule="evenodd" clip-rule="evenodd" d="M120.185 23.9359C119.943 23.9359 119.746 23.7399 119.746 23.499V2.461C119.746 2.22018 119.943 2.02319 120.185 2.02319H126.693C126.935 2.02319 127.131 2.22018 127.131 2.461V23.499C127.131 23.7399 126.935 23.9359 126.693 23.9359H120.185Z" fill="#1B1918"/>
<path fill-rule="evenodd" clip-rule="evenodd" d="M120.185 23.5369L120.146 2.46096L126.694 2.42212L126.733 23.499C126.733 23.5188 126.715 23.5369 126.694 23.5369H120.185Z" fill="#2FA729"/>
<path fill-rule="evenodd" clip-rule="evenodd" d="M81.8852 24.5919C81.2803 24.5919 80.7891 24.1026 80.7891 23.499V2.46097C80.7891 1.85642 81.2803 1.36646 81.8852 1.36646H88.3935C88.9984 1.36646 89.4886 1.85642 89.4886 2.46097V23.499C89.4886 24.1026 88.9984 24.5919 88.3935 24.5919H81.8852Z" fill="white"/>
<path fill-rule="evenodd" clip-rule="evenodd" d="M81.884 23.9359C81.6418 23.9359 81.4453 23.7399 81.4453 23.499V2.461C81.4453 2.22018 81.6418 2.02319 81.884 2.02319H88.3924C88.6346 2.02319 88.8301 2.22018 88.8301 2.461V23.499C88.8301 23.7399 88.6346 23.9359 88.3924 23.9359H81.884Z" fill="#1B1918"/>
<path fill-rule="evenodd" clip-rule="evenodd" d="M81.8846 23.5369L81.8457 2.46096L88.3929 2.42212L88.4318 23.499C88.4318 23.5188 88.4144 23.5369 88.3929 23.5369H81.8846Z" fill="#E83F70"/>
<defs>
<linearGradient id="paint0_linear_1_819" x1="-78.8316" y1="-68.4709" x2="-78.8316" y2="-89.5856" gradientUnits="userSpaceOnUse">
<stop stop-color="#006FB5"/>
<stop offset="1" stop-color="#00B2E7"/>
</linearGradient>
<linearGradient id="paint1_linear_1_819" x1="-199.119" y1="-68.4711" x2="-199.119" y2="-89.5856" gradientUnits="userSpaceOnUse">
<stop stop-color="#006FB5"/>
<stop offset="1" stop-color="#00B2E7"/>
</linearGradient>
<linearGradient id="paint2_linear_1_819" x1="-138.495" y1="-68.4713" x2="-138.495" y2="-89.5851" gradientUnits="userSpaceOnUse">
<stop stop-color="#006FB5"/>
<stop offset="1" stop-color="#00B2E7"/>
</linearGradient>
<linearGradient id="paint3_linear_1_819" x1="-160.204" y1="-68.4709" x2="-160.204" y2="-89.5856" gradientUnits="userSpaceOnUse">
<stop stop-color="#006FB5"/>
<stop offset="1" stop-color="#00B2E7"/>
</linearGradient>
<linearGradient id="paint4_linear_1_819" x1="-117.26" y1="-73.5129" x2="-117.26" y2="-84.5436" gradientUnits="userSpaceOnUse">
<stop stop-color="#006FB5"/>
<stop offset="1" stop-color="#00B2E7"/>
</linearGradient>
<linearGradient id="paint5_linear_1_819" x1="-177.432" y1="-73.4516" x2="-177.432" y2="-84.6051" gradientUnits="userSpaceOnUse">
<stop stop-color="#006FB5"/>
<stop offset="1" stop-color="#00B2E7"/>
</linearGradient>
</defs>
</svg>
