<svg width="235" height="80" viewBox="0 0 235 80" fill="none" xmlns="http://www.w3.org/2000/svg">
<path fill-rule="evenodd" clip-rule="evenodd" d="M0 24.4865L10.7207 77.5177L225.995 80L235 14.9092L172.455 17.4581V3.28097C172.455 1.47095 170.981 0 169.164 0H160.473C158.656 0 157.183 1.47045 157.182 3.28052C157.182 1.47095 155.707 0.000898536 153.89 0.000898536H145.199C143.383 0.000898536 141.909 1.47095 141.909 3.28052V10.6703L134.597 1.27105C133.974 0.470059 133.012 0.000898536 131.996 0.000898536H124.607C122.791 0.000898536 121.316 1.47095 121.316 3.28052C121.316 1.4705 119.841 0 118.024 0H109.334C107.903 0 106.685 0.911842 106.232 2.18289C106.188 2.05873 106.136 1.93642 106.076 1.8164C105.519 0.704211 104.377 0 103.13 0H93.1182C92.0736 0 91.0921 0.494242 90.4706 1.33128L84.022 10.0172L76.4693 1.15692C75.8446 0.424432 74.9263 0 73.9613 0H65.8365C64.0192 0 62.5445 1.47095 62.5445 3.28097V21.9376L0 24.4865ZM106.043 4.80801C105.962 4.96274 105.867 5.11153 105.76 5.25393L99.4738 13.5748H102.751C104.569 13.5748 106.043 15.0434 106.043 16.8553V4.80801Z" fill="#FFCE42"/>
<path fill-rule="evenodd" clip-rule="evenodd" d="M94.0639 32.7875C93.2562 32.7875 92.6003 32.1352 92.6003 31.3304V19.6429L85.37 29.213C85.0997 29.5706 84.6844 29.7828 84.2357 29.7942C84.2242 29.7942 84.2127 29.7942 84.2013 29.7942C83.7665 29.7942 83.3544 29.6027 83.0762 29.2692L75.9908 20.7744V31.3304C75.9908 32.1352 75.335 32.7875 74.5286 32.7875H65.8382C65.0296 32.7875 64.375 32.1352 64.375 31.3304V3.27966C64.375 2.47359 65.0296 1.82031 65.8382 1.82031H73.9626C74.3906 1.82031 74.7989 2.00924 75.0762 2.33478L84.1232 12.947L91.9435 2.41165C92.2185 2.04039 92.6545 1.82031 93.1192 1.82031H103.131C103.686 1.82031 104.193 2.13313 104.442 2.62859C104.688 3.12242 104.634 3.71412 104.3 4.15527L95.8088 15.3944H102.753C103.561 15.3944 104.216 16.048 104.216 16.8537V31.3304C104.216 32.1352 103.561 32.7875 102.753 32.7875H94.0639Z" fill="white"/>
<path fill-rule="evenodd" clip-rule="evenodd" d="M94.0611 31.9123C93.7377 31.9123 93.4753 31.6509 93.4753 31.3298V17.0262L84.6658 28.6883C84.5574 28.8294 84.3907 28.9154 84.2122 28.9202C84.2077 28.9202 84.202 28.9202 84.1985 28.9202C84.0248 28.9202 83.8581 28.8411 83.7488 28.709L75.1104 18.3528V31.3298C75.1104 31.6509 74.849 31.9123 74.5259 31.9123H65.8355C65.5136 31.9123 65.25 31.6509 65.25 31.3298V3.27905C65.25 2.95797 65.5136 2.69531 65.8355 2.69531H73.9598C74.13 2.69531 74.2945 2.76993 74.4051 2.90173L84.1663 14.353L92.6448 2.93158C92.7554 2.78265 92.9313 2.69531 93.1165 2.69531H103.129C103.351 2.69531 103.554 2.82172 103.654 3.01766C103.751 3.21585 103.729 3.45306 103.597 3.62968L94.0471 16.2709C94.0519 16.2709 102.75 16.2709 102.75 16.2709C103.072 16.2709 103.337 16.5311 103.337 16.8531V31.3298C103.337 31.6509 103.072 31.9123 102.75 31.9123H94.0611Z" fill="#1B1918"/>
<path fill-rule="evenodd" clip-rule="evenodd" d="M65.8368 31.3796L65.7852 3.27835L73.9612 3.22656L84.2378 15.2555L93.0764 3.24719L103.13 3.22656L84.24 28.3656L74.4871 16.7711L74.5788 31.3291C74.5788 31.3554 74.5559 31.3796 74.5272 31.3796H65.8368ZM94.0625 31.3796L94.0105 16.8524L102.752 16.8009L102.803 31.3291C102.803 31.3554 102.78 31.3796 102.752 31.3796H94.0625Z" fill="#E84026"/>
<path fill-rule="evenodd" clip-rule="evenodd" d="M201.905 71.8682C200.882 71.8682 199.919 71.3959 199.294 70.5889L195.144 65.2145V68.5884C195.144 70.3987 193.671 71.8682 191.852 71.8682H183.162C181.346 71.8682 179.871 70.3987 179.871 68.5884V40.5377C179.871 38.7276 181.346 37.2578 183.162 37.2578H190.552C191.567 37.2578 192.529 37.7269 193.153 38.5282L200.465 47.9271V40.5377C200.465 38.7276 201.938 37.2578 203.755 37.2578H212.445C214.263 37.2578 215.738 38.7276 215.738 40.5377V55.9944C215.738 57.8044 214.263 59.2729 212.445 59.2729H209.289L214.972 66.579C215.742 67.5682 215.879 68.906 215.326 70.0319C214.773 71.1552 213.628 71.8682 212.37 71.8682H201.905Z" fill="#1B1918"/>
<path fill-rule="evenodd" clip-rule="evenodd" d="M50.7777 71.8695C48.9588 71.8695 47.4851 70.401 47.4851 68.5897V62.3534L43.5439 67.5692C42.9399 68.3696 42.001 68.8511 40.9932 68.8752C40.9668 68.8761 40.9415 68.8761 40.9151 68.8761C39.9373 68.8761 39.0102 68.4429 38.382 67.6921L34.5338 63.0768V68.5896C34.5338 70.4009 33.0601 71.8695 31.2425 71.8695H22.5521C20.7344 71.8695 19.2598 70.4009 19.2598 68.5896V40.5389C19.2598 38.7286 20.7344 37.2578 22.5521 37.2578H30.6764C31.6415 37.2578 32.5597 37.6821 33.1844 38.4145L40.737 47.2748L47.1861 38.5889C47.8073 37.752 48.7886 37.2578 49.8331 37.2578H59.8451C61.0923 37.2578 62.2346 37.9616 62.7914 39.0738C63.3481 40.187 63.2251 41.5177 62.4752 42.5118L56.1892 50.8322H59.4669C61.2845 50.8322 62.7582 52.3007 62.7582 54.113V68.5896C62.7582 70.4009 61.2845 71.8695 59.4669 71.8695L50.7777 71.8695Z" fill="#1B1918"/>
<path fill-rule="evenodd" clip-rule="evenodd" d="M50.7787 70.0532C49.9711 70.0532 49.3152 69.4008 49.3152 68.596V56.9085L42.0849 66.4786C41.8146 66.8362 41.3993 67.0484 40.9505 67.0598C40.9391 67.0598 40.9276 67.0598 40.9161 67.0598C40.4814 67.0598 40.0693 66.8683 39.7911 66.5348L32.7057 58.0401V68.596C32.7057 69.4008 32.0498 70.0532 31.2435 70.0532H22.5531C21.7445 70.0532 21.0898 69.4008 21.0898 68.596V40.5453C21.0898 39.7392 21.7445 39.0859 22.5531 39.0859H30.6774C31.1055 39.0859 31.5137 39.2749 31.791 39.6004L40.838 50.2126L48.6583 39.6773C48.9334 39.306 49.3694 39.0859 49.8341 39.0859H59.8461C60.4007 39.0859 60.9081 39.3988 61.1564 39.8942C61.4027 40.3881 61.3486 40.9797 61.0152 41.4209L52.5237 52.66H59.4679C60.2755 52.66 60.931 53.3136 60.931 54.1193V68.596C60.931 69.4008 60.2755 70.0532 59.4679 70.0532H50.7787Z" fill="#FFCE42"/>
<path fill-rule="evenodd" clip-rule="evenodd" d="M50.7799 69.1779C50.4564 69.1779 50.1941 68.9165 50.1941 68.5954V54.2918L41.3845 65.954C41.2762 66.095 41.1094 66.1811 40.931 66.1858C40.9265 66.1858 40.9208 66.1858 40.9173 66.1858C40.7436 66.1858 40.5769 66.1067 40.4676 65.9746L31.8292 55.6184V68.5954C31.8292 68.9165 31.5678 69.1779 31.2446 69.1779H22.5542C22.2323 69.1779 21.9688 68.9165 21.9688 68.5954V40.5447C21.9688 40.2236 22.2323 39.9609 22.5542 39.9609H30.6786C30.8488 39.9609 31.0133 40.0356 31.1238 40.1674L40.8851 51.6186L49.3635 40.1972C49.4741 40.0483 49.6501 39.9609 49.8352 39.9609H59.8473C60.0695 39.9609 60.2731 40.0873 60.3732 40.2833C60.4698 40.4815 60.4478 40.7187 60.3155 40.8953L50.7659 53.5366C50.7706 53.5366 59.469 53.5366 59.469 53.5366C59.7909 53.5366 60.0558 53.7967 60.0558 54.1187V68.5954C60.0558 68.9165 59.7909 69.1779 59.469 69.1779H50.7799Z" fill="#1B1918"/>
<path d="M22.5516 68.6452L22.5 40.544L30.676 40.4922L40.9526 52.5212L49.7912 40.5128L59.8447 40.4922L40.9548 65.6312L31.2019 54.0367L31.2937 68.5947C31.2937 68.6211 31.2707 68.6452 31.242 68.6452H22.5516ZM50.7773 68.6452L50.7253 54.118L59.4664 54.0666L59.518 68.5947C59.518 68.6211 59.4951 68.6452 59.4664 68.6452H50.7773Z" fill="url(#paint0_linear_540_6109)"/>
<path fill-rule="evenodd" clip-rule="evenodd" d="M201.91 70.0532C201.455 70.0532 201.027 69.8432 200.75 69.4843L193.321 59.8685V68.5947C193.321 69.3995 192.665 70.0532 191.856 70.0532H183.167C182.361 70.0532 181.705 69.3995 181.705 68.5947V40.544C181.705 39.7383 182.361 39.0859 183.167 39.0859H190.556C191.008 39.0859 191.435 39.2946 191.711 39.6509L202.298 53.2587V40.544C202.298 39.7383 202.953 39.0859 203.76 39.0859H212.45C213.259 39.0859 213.914 39.7383 213.914 40.544V56.0008C213.914 56.8043 213.259 57.4576 212.45 57.4576H205.563L213.533 67.7007C213.874 68.1409 213.934 68.7358 213.69 69.2344C213.444 69.7365 212.934 70.0532 212.375 70.0532H201.91Z" fill="#FFCE42"/>
<path fill-rule="evenodd" clip-rule="evenodd" d="M201.905 69.1776C201.722 69.1776 201.55 69.0937 201.44 68.9495L192.439 57.2976V68.5951C192.439 68.9149 192.174 69.1776 191.851 69.1776H183.162C182.84 69.1776 182.576 68.9149 182.576 68.5951V40.5444C182.576 40.2223 182.84 39.9609 183.162 39.9609H190.551C190.73 39.9609 190.901 40.0445 191.012 40.1867L203.17 55.8141V40.5444C203.17 40.2223 203.432 39.9609 203.754 39.9609H212.445C212.768 39.9609 213.03 40.2223 213.03 40.5444V56.0011C213.03 56.3219 212.768 56.5833 212.445 56.5833H203.767L212.833 68.2375C212.971 68.4128 212.993 68.6513 212.895 68.8508C212.797 69.0515 212.594 69.1776 212.37 69.1776H201.905Z" fill="#1B1918"/>
<path d="M203.76 56.0509L203.708 40.5437L212.45 40.4922L212.503 56.0004C212.503 56.0277 212.479 56.0509 212.45 56.0509H203.76ZM201.91 68.6449L191.817 55.6164L191.908 68.5944L183.167 68.6449L183.115 40.5437L190.556 40.4922L212.417 68.5636C212.428 68.5773 212.43 68.6001 212.421 68.6173C212.413 68.6334 212.396 68.6449 212.375 68.6449H201.91Z" fill="url(#paint1_linear_540_6109)"/>
<path fill-rule="evenodd" clip-rule="evenodd" d="M109.166 71.8672C107.349 71.8672 105.875 70.3987 105.875 68.5884V51.536H102.213C100.396 51.536 98.9219 50.0665 98.9219 48.2552V40.5367C98.9219 38.7264 100.396 37.2578 102.213 37.2578H124.62C126.437 37.2578 127.912 38.7264 127.912 40.5367V48.2552C127.912 50.0665 126.437 51.536 124.62 51.536H120.96V68.5884C120.96 70.3987 119.486 71.8672 117.668 71.8672H109.166Z" fill="#1B1918"/>
<path fill-rule="evenodd" clip-rule="evenodd" d="M109.167 70.0519C108.36 70.0519 107.705 69.3986 107.705 68.5947V50.4832C107.705 50.2034 107.783 49.942 107.92 49.721H102.214C101.408 49.721 100.752 49.0673 100.752 48.2616V40.5431C100.752 39.7392 101.408 39.0859 102.214 39.0859H124.621C125.43 39.0859 126.084 39.7392 126.084 40.5431V48.2616C126.084 49.0673 125.43 49.721 124.621 49.721H118.916C119.053 49.942 119.132 50.2034 119.132 50.4832V68.5947C119.132 69.3986 118.478 70.0519 117.669 70.0519H109.167Z" fill="#FFCE42"/>
<path fill-rule="evenodd" clip-rule="evenodd" d="M102.215 48.8454C101.893 48.8454 101.631 48.584 101.631 48.262V40.5434C101.631 40.2223 101.893 39.9609 102.215 39.9609H124.622C124.945 39.9609 125.207 40.2223 125.207 40.5434V48.262C125.207 48.584 124.945 48.8454 124.622 48.8454H102.215ZM109.168 69.1776C108.845 69.1776 108.583 68.9162 108.583 68.5951V50.4835C108.583 50.1615 108.845 49.9001 109.168 49.9001H117.67C117.993 49.9001 118.256 50.1615 118.256 50.4835V68.5951C118.256 68.9162 117.993 69.1776 117.67 69.1776H109.168Z" fill="#1B1918"/>
<path d="M102.212 48.3127L102.162 40.5427L124.618 40.4922L124.67 48.2612C124.67 48.2898 124.646 48.3127 124.618 48.3127H102.212ZM109.165 68.6439L109.113 50.4828L117.666 50.4314L117.718 68.5944C117.718 68.622 117.694 68.6439 117.666 68.6439H109.165Z" fill="url(#paint2_linear_540_6109)"/>
<path fill-rule="evenodd" clip-rule="evenodd" d="M131.205 71.8695C129.388 71.8695 127.914 70.4009 127.914 68.5896V40.5389C127.914 38.7286 129.388 37.2578 131.205 37.2578H139.896C141.712 37.2578 143.187 38.7286 143.187 40.5389V68.5896C143.187 70.4009 141.712 71.8695 139.896 71.8695H131.205Z" fill="#1B1918"/>
<path fill-rule="evenodd" clip-rule="evenodd" d="M131.206 70.0532C130.398 70.0532 129.742 69.4008 129.742 68.596V40.5453C129.742 39.7392 130.398 39.0859 131.206 39.0859H139.896C140.703 39.0859 141.358 39.7392 141.358 40.5453V68.596C141.358 69.4008 140.703 70.0532 139.896 70.0532H131.206Z" fill="#FFCE42"/>
<path fill-rule="evenodd" clip-rule="evenodd" d="M131.205 69.1779C130.881 69.1779 130.619 68.9165 130.619 68.5954V40.5447C130.619 40.2236 130.881 39.9609 131.205 39.9609H139.895C140.218 39.9609 140.48 40.2236 140.48 40.5447V68.5954C140.48 68.9165 140.218 69.1779 139.895 69.1779H131.205Z" fill="#1B1918"/>
<path d="M131.204 68.6452L131.152 40.544L139.894 40.4922L139.946 68.5947C139.946 68.6211 139.923 68.6452 139.894 68.6452H131.204Z" fill="url(#paint3_linear_540_6109)"/>
<path fill-rule="evenodd" clip-rule="evenodd" d="M91.1229 38.4847C92.0806 39.0714 92.9734 39.7363 93.7962 40.4685C94.0181 40.4625 94.2567 40.5061 94.5186 40.6172C96.4493 41.4325 99.8871 46.6041 100.634 49.1272C100.873 49.9382 100.411 50.1941 99.6204 50.1896C99.8784 51.2612 100.043 52.3603 100.109 53.474C100.271 53.6267 100.409 53.8263 100.516 54.0904C101.303 56.0277 100.064 62.1064 98.8016 64.4163C98.3965 65.1564 97.8893 65.0148 97.3372 64.4596C96.7482 65.4157 96.0803 66.3081 95.3452 67.13C95.35 67.3496 95.3062 67.5846 95.1962 67.8429C94.3774 69.7673 89.1881 73.1927 86.6561 73.9362C85.8484 74.1741 85.589 73.7212 85.5897 72.9444C84.5077 73.2037 83.3977 73.3695 82.2729 73.4346C82.1224 73.5871 81.9288 73.7175 81.6754 73.8192C79.7311 74.6031 73.6312 73.3682 71.3132 72.1103C70.5782 71.7116 70.7089 71.2128 71.252 70.6684C70.2852 70.0769 69.3844 69.406 68.5548 68.6672C68.3446 68.6669 68.1202 68.6217 67.8745 68.5179C65.9435 67.7022 62.506 62.5309 61.7594 60.0082C61.5229 59.2089 61.969 58.948 62.7383 58.9451C62.4784 57.8622 62.313 56.7523 62.2492 55.6266C62.1022 55.4787 61.9765 55.2895 61.8772 55.045C61.0907 53.1073 62.3295 47.0286 63.5918 44.7185C63.9923 43.9859 64.4932 44.1172 65.0401 44.6583C65.633 43.6981 66.3065 42.8026 67.0474 41.9781C67.0469 41.7666 67.0918 41.5397 67.1968 41.2921C68.0158 39.3678 73.205 35.9424 75.7369 35.1985C76.545 34.9613 76.8043 35.4142 76.8033 36.1913C77.8835 35.9345 78.9909 35.7716 80.1126 35.7077C80.2644 35.5521 80.4605 35.4195 80.7176 35.3158C82.662 34.5321 88.7618 35.7666 91.0798 37.0244C91.8226 37.4277 91.6805 37.9334 91.1229 38.4847Z" fill="#1B1918"/>
<path fill-rule="evenodd" clip-rule="evenodd" d="M77.283 41.8803C70.2541 44.0365 66.3096 51.4663 68.474 58.47C70.6384 65.4742 78.0934 69.4049 85.1227 67.2485C92.151 65.0914 96.0953 57.6625 93.9311 50.6579C91.7669 43.6542 84.3117 39.723 77.283 41.8803Z" fill="#FEFDF4"/>
<path d="M79.0192 47.5384C75.125 48.7329 72.94 52.8483 74.1392 56.7284C75.3383 60.6082 79.4683 62.7862 83.3616 61.5909C87.2554 60.3965 89.4407 56.281 88.2417 52.4009C87.0425 48.5213 82.9125 46.3435 79.0192 47.5384Z" fill="url(#paint4_linear_540_6109)"/>
<path fill-rule="evenodd" clip-rule="evenodd" d="M87.6856 46.8928C87.6856 46.8928 88.959 47.9075 89.5985 49.5634C90.2386 51.22 88.4652 51.5951 86.052 52.1599C83.64 52.7258 83.4057 52.2305 83.0458 51.0557C82.685 49.8804 82.815 47.8469 83.1814 46.2241C83.5477 44.6017 86.1848 45.6998 87.6856 46.8928ZM75.9201 46.4417C75.9201 46.4417 77.2947 45.5691 79.0743 45.5008C80.8536 45.4326 80.6375 47.2256 80.3949 49.6841C80.1528 52.1413 79.6075 52.2022 78.3745 52.1622C77.1419 52.1226 75.2527 51.3433 73.8307 50.4738C72.4073 49.6045 74.3021 47.4719 75.9201 46.4417ZM71.5703 57.7985C71.5703 57.7985 71.082 56.2486 71.4796 54.5184C71.877 52.7886 73.5579 53.4632 75.8767 54.3367C78.1944 55.2103 78.1119 55.7511 77.7523 56.9263C77.3923 58.1022 76.1457 59.7162 74.9325 60.8584C73.7191 62.0014 72.1468 59.6229 71.5703 57.7985ZM80.8087 64.2861C80.8087 64.2861 79.1785 64.2774 77.6459 63.3733C76.1133 62.4693 77.2709 61.0791 78.8117 59.1441C80.352 57.2099 80.8435 57.4539 81.8577 58.1526C82.8722 58.8519 84.0352 60.5275 84.7578 62.0264C85.4806 63.5254 82.7287 64.2942 80.8087 64.2861ZM90.7017 57.4885C90.7017 57.4885 90.3231 59.069 89.092 60.3512C87.861 61.6331 86.7645 60.1951 85.2233 58.2606C83.6825 56.3263 84.032 55.905 84.9456 55.0786C85.8592 54.253 87.7604 53.5045 89.3889 53.1432C91.0182 52.7822 91.1454 55.6272 90.7017 57.4885ZM77.9112 43.6418C71.8582 45.4995 68.4614 51.8972 70.3252 57.9292C72.1894 63.9606 78.6098 67.3458 84.6628 65.4888C90.7164 63.6315 94.1132 57.2335 92.249 51.2017C90.3848 45.1695 83.9648 41.7845 77.9112 43.6418Z" fill="#1B1918"/>
<path fill-rule="evenodd" clip-rule="evenodd" d="M171.66 38.304C172.629 38.8972 173.531 39.5695 174.363 40.3098C174.588 40.3038 174.829 40.3479 175.094 40.4602C177.046 41.2846 180.522 46.5138 181.277 49.065C181.519 49.885 181.052 50.1437 180.252 50.1392C180.513 51.2228 180.68 52.334 180.747 53.4602C180.91 53.6146 181.05 53.8164 181.158 54.0834C181.954 56.0423 180.701 62.1888 179.424 64.5244C179.015 65.2727 178.502 65.1295 177.944 64.5681C177.348 65.5349 176.673 66.4371 175.93 67.2682C175.934 67.4903 175.89 67.7279 175.779 67.9891C174.951 69.9349 169.704 73.3984 167.144 74.1503C166.327 74.3908 166.065 73.9329 166.065 73.1474C164.971 73.4096 163.849 73.5773 162.712 73.6431C162.56 73.7972 162.364 73.9291 162.108 74.032C160.142 74.8245 153.974 73.5759 151.63 72.304C150.887 71.9008 151.019 71.3965 151.568 70.846C150.591 70.248 149.68 69.5696 148.841 68.8226C148.628 68.8223 148.401 68.7765 148.153 68.6716C146.2 67.8469 142.725 62.6179 141.97 60.0671C141.731 59.259 142.182 58.9951 142.96 58.9922C142.697 57.8972 142.53 56.775 142.465 55.6367C142.316 55.4871 142.189 55.2959 142.089 55.0486C141.294 53.0895 142.546 46.943 143.823 44.6072C144.228 43.8665 144.734 43.9991 145.287 44.5464C145.887 43.5755 146.568 42.67 147.317 41.8363C147.316 41.6224 147.362 41.393 147.468 41.1427C148.296 39.1969 153.543 35.7333 156.103 34.9812C156.92 34.7413 157.182 35.1993 157.181 35.9851C158.273 35.7254 159.393 35.5607 160.527 35.496C160.681 35.3387 160.879 35.2047 161.139 35.0998C163.105 34.3073 169.273 35.5555 171.617 36.8274C172.368 37.2352 172.224 37.7466 171.66 38.304Z" fill="#1B1918"/>
<path fill-rule="evenodd" clip-rule="evenodd" d="M157.671 41.7385C150.564 43.9187 146.575 51.4312 148.764 58.5129C150.952 65.5951 158.49 69.5695 165.598 67.3892C172.704 65.208 176.693 57.6964 174.504 50.6137C172.316 43.5321 164.778 39.5572 157.671 41.7385Z" fill="#FEFDF4"/>
<path d="M159.423 47.4639C155.485 48.6717 153.276 52.8329 154.489 56.7563C155.701 60.6793 159.877 62.8815 163.814 61.6729C167.751 60.4652 169.96 56.3039 168.748 52.3806C167.536 48.4577 163.36 46.2558 159.423 47.4639Z" fill="url(#paint5_linear_540_6109)"/>
<path fill-rule="evenodd" clip-rule="evenodd" d="M168.179 46.8097C168.179 46.8097 169.467 47.8357 170.114 49.51C170.761 51.1851 168.968 51.5643 166.528 52.1354C164.089 52.7076 163.852 52.2069 163.488 51.0189C163.123 49.8305 163.255 47.7744 163.625 46.1335C163.996 44.4931 166.662 45.6034 168.179 46.8097ZM156.283 46.3535C156.283 46.3535 157.673 45.4712 159.472 45.4022C161.271 45.3331 161.053 47.1461 160.808 49.632C160.563 52.1166 160.011 52.1782 158.765 52.1378C157.518 52.0977 155.608 51.3097 154.17 50.4305C152.731 49.5515 154.647 47.3952 156.283 46.3535ZM151.885 57.8368C151.885 57.8368 151.391 56.2696 151.793 54.5202C152.195 52.7712 153.894 53.4532 156.239 54.3365C158.583 55.2198 158.499 55.7666 158.136 56.9549C157.772 58.1439 156.511 59.7759 155.284 60.9308C154.058 62.0865 152.468 59.6815 151.885 57.8368ZM161.226 64.3966C161.226 64.3966 159.578 64.3879 158.028 63.4737C156.478 62.5596 157.649 61.154 159.207 59.1974C160.764 57.2417 161.261 57.4883 162.287 58.1948C163.313 58.9019 164.488 60.5962 165.219 62.1118C165.95 63.6275 163.167 64.4048 161.226 64.3966ZM171.229 57.5234C171.229 57.5234 170.846 59.1215 169.602 60.418C168.357 61.7141 167.248 60.2601 165.69 58.304C164.132 56.3483 164.485 55.9222 165.409 55.0866C166.333 54.2518 168.255 53.495 169.902 53.1296C171.549 52.7647 171.678 55.6414 171.229 57.5234ZM158.296 43.5225C152.176 45.4008 148.741 51.8698 150.626 57.969C152.511 64.0675 159.003 67.4904 165.123 65.6126C171.244 63.7348 174.679 57.2656 172.794 51.1666C170.909 45.0672 164.417 41.6445 158.296 43.5225Z" fill="#1B1918"/>
<path fill-rule="evenodd" clip-rule="evenodd" d="M143.349 32.7875C142.895 32.7875 142.467 32.5776 142.19 32.2187L134.76 22.6028V31.3291C134.76 32.1339 134.104 32.7875 133.296 32.7875H124.607C123.8 32.7875 123.145 32.1339 123.145 31.3291V3.2784C123.145 2.47265 123.8 1.82031 124.607 1.82031H131.996C132.448 1.82031 132.875 2.02898 133.151 2.38531L143.737 15.993V3.2784C143.737 2.47265 144.393 1.82031 145.199 1.82031H153.889C154.698 1.82031 155.354 2.47265 155.354 3.2784V18.7352C155.354 19.5387 154.698 20.192 153.889 20.192H147.003L154.973 30.4351C155.314 30.8753 155.374 31.4701 155.129 31.9687C154.883 32.4709 154.374 32.7875 153.815 32.7875H143.349Z" fill="white"/>
<path fill-rule="evenodd" clip-rule="evenodd" d="M143.35 31.9119C143.167 31.9119 142.995 31.8281 142.885 31.6839L133.884 20.0319V31.3295C133.884 31.6493 133.62 31.9119 133.296 31.9119H124.607C124.285 31.9119 124.021 31.6493 124.021 31.3295V3.27874C124.021 2.95666 124.285 2.69531 124.607 2.69531H131.996C132.176 2.69531 132.346 2.77883 132.458 2.9211L144.615 18.5484V3.27874C144.615 2.95666 144.878 2.69531 145.2 2.69531H153.89C154.213 2.69531 154.476 2.95666 154.476 3.27874V18.7355C154.476 19.0563 154.213 19.3177 153.89 19.3177H145.212L154.279 30.9718C154.417 31.1471 154.439 31.3857 154.341 31.5851C154.242 31.7859 154.04 31.9119 153.815 31.9119H143.35Z" fill="#1B1918"/>
<path fill-rule="evenodd" clip-rule="evenodd" d="M145.197 18.7853L145.145 3.27803L153.887 3.22656L153.94 18.7348C153.94 18.7621 153.916 18.7853 153.887 18.7853H145.197ZM143.347 31.3792L133.255 18.3508L133.345 31.3288L124.605 31.3792L124.553 3.27803L131.994 3.22656L153.854 31.298C153.866 31.3116 153.868 31.3345 153.859 31.3516C153.851 31.3678 153.833 31.3792 153.813 31.3792H143.347Z" fill="#EE7005"/>
<path fill-rule="evenodd" clip-rule="evenodd" d="M160.473 32.7875C159.666 32.7875 159.01 32.1352 159.01 31.3304V3.27966C159.01 2.47359 159.666 1.82031 160.473 1.82031H169.163C169.971 1.82031 170.626 2.47359 170.626 3.27966V31.3304C170.626 32.1352 169.971 32.7875 169.163 32.7875H160.473Z" fill="white"/>
<path fill-rule="evenodd" clip-rule="evenodd" d="M160.473 31.9123C160.149 31.9123 159.887 31.6509 159.887 31.3298V3.27905C159.887 2.95797 160.149 2.69531 160.473 2.69531H169.163C169.486 2.69531 169.747 2.95797 169.747 3.27905V31.3298C169.747 31.6509 169.486 31.9123 169.163 31.9123H160.473Z" fill="#1B1918"/>
<path fill-rule="evenodd" clip-rule="evenodd" d="M160.478 31.3796L160.426 3.27835L169.168 3.22656L169.22 31.3291C169.22 31.3554 169.196 31.3796 169.168 31.3796H160.478Z" fill="#2FA729"/>
<path fill-rule="evenodd" clip-rule="evenodd" d="M109.335 32.7875C108.527 32.7875 107.871 32.1352 107.871 31.3304V3.27966C107.871 2.47359 108.527 1.82031 109.335 1.82031H118.025C118.832 1.82031 119.487 2.47359 119.487 3.27966V31.3304C119.487 32.1352 118.832 32.7875 118.025 32.7875H109.335Z" fill="white"/>
<path fill-rule="evenodd" clip-rule="evenodd" d="M109.334 31.9123C109.01 31.9123 108.748 31.6509 108.748 31.3298V3.27905C108.748 2.95797 109.01 2.69531 109.334 2.69531H118.024C118.347 2.69531 118.608 2.95797 118.608 3.27905V31.3298C118.608 31.6509 118.347 31.9123 118.024 31.9123H109.334Z" fill="#1B1918"/>
<path fill-rule="evenodd" clip-rule="evenodd" d="M109.333 31.3796L109.281 3.27835L118.023 3.22656L118.075 31.3291C118.075 31.3554 118.052 31.3796 118.023 31.3796H109.333Z" fill="#E83F70"/>
<defs>
<linearGradient id="paint0_linear_540_6109" x1="-105.259" y1="-91.2919" x2="-105.259" y2="-119.445" gradientUnits="userSpaceOnUse">
<stop stop-color="#006FB5"/>
<stop offset="1" stop-color="#00B2E7"/>
</linearGradient>
<linearGradient id="paint1_linear_540_6109" x1="-265.868" y1="-91.2925" x2="-265.868" y2="-119.445" gradientUnits="userSpaceOnUse">
<stop stop-color="#006FB5"/>
<stop offset="1" stop-color="#00B2E7"/>
</linearGradient>
<linearGradient id="paint2_linear_540_6109" x1="-184.923" y1="-91.2931" x2="-184.923" y2="-119.445" gradientUnits="userSpaceOnUse">
<stop stop-color="#006FB5"/>
<stop offset="1" stop-color="#00B2E7"/>
</linearGradient>
<linearGradient id="paint3_linear_540_6109" x1="-213.909" y1="-91.2919" x2="-213.909" y2="-119.445" gradientUnits="userSpaceOnUse">
<stop stop-color="#006FB5"/>
<stop offset="1" stop-color="#00B2E7"/>
</linearGradient>
<linearGradient id="paint4_linear_540_6109" x1="-156.569" y1="-98.0187" x2="-156.569" y2="-112.726" gradientUnits="userSpaceOnUse">
<stop stop-color="#006FB5"/>
<stop offset="1" stop-color="#00B2E7"/>
</linearGradient>
<linearGradient id="paint5_linear_540_6109" x1="-236.912" y1="-97.9331" x2="-236.912" y2="-112.804" gradientUnits="userSpaceOnUse">
<stop stop-color="#006FB5"/>
<stop offset="1" stop-color="#00B2E7"/>
</linearGradient>
</defs>
</svg>
