<svg width="38" height="38" viewBox="0 0 38 38" fill="none" xmlns="http://www.w3.org/2000/svg">
<path d="M25.744 17.5001C25.228 17.5001 24.82 17.0801 24.82 16.5761C24.82 16.1321 24.376 15.2081 23.632 14.4041C22.9 13.6241 22.096 13.1681 21.424 13.1681C20.908 13.1681 20.5 12.7481 20.5 12.2441C20.5 11.7401 20.92 11.3201 21.424 11.3201C22.624 11.3201 23.884 11.9681 24.988 13.1321C26.02 14.2241 26.68 15.5801 26.68 16.5641C26.68 17.0801 26.26 17.5001 25.744 17.5001Z" fill="white"/>
<path d="M30.0757 17.5C29.5597 17.5 29.1517 17.08 29.1517 16.576C29.1517 12.316 25.6837 8.86 21.4357 8.86C20.9197 8.86 20.5117 8.44 20.5117 7.936C20.5117 7.432 20.9197 7 21.4237 7C26.7037 7 30.9997 11.296 30.9997 16.576C30.9997 17.08 30.5797 17.5 30.0757 17.5Z" fill="white"/>
<path d="M17.86 22.54L15.64 24.76C15.172 25.228 14.428 25.228 13.948 24.772C13.816 24.64 13.684 24.52 13.552 24.388C12.316 23.14 11.2 21.832 10.204 20.464C9.22 19.096 8.428 17.728 7.852 16.372C7.288 15.004 7 13.696 7 12.448C7 11.632 7.144 10.852 7.432 10.132C7.72 9.4 8.176 8.728 8.812 8.128C9.57999 7.372 10.42 7 11.308 7C11.644 7 11.98 7.072 12.28 7.216C12.592 7.36 12.868 7.576 13.084 7.888L15.868 11.812C16.084 12.112 16.24 12.388 16.348 12.652C16.456 12.904 16.516 13.156 16.516 13.384C16.516 13.672 16.432 13.96 16.264 14.236C16.108 14.512 15.88 14.8 15.592 15.088L14.68 16.036C14.548 16.168 14.488 16.324 14.488 16.516C14.488 16.612 14.5 16.696 14.524 16.792C14.56 16.888 14.596 16.96 14.62 17.032C14.836 17.428 15.208 17.944 15.736 18.568C16.276 19.192 16.852 19.828 17.476 20.464C17.596 20.584 17.728 20.704 17.848 20.824C18.328 21.292 18.34 22.06 17.86 22.54Z" fill="white"/>
<path d="M30.9641 26.596C30.9641 26.932 30.9041 27.28 30.7841 27.616C30.7481 27.712 30.7121 27.808 30.6641 27.904C30.4601 28.336 30.1961 28.744 29.8481 29.128C29.2601 29.776 28.6121 30.244 27.8801 30.544C27.8681 30.544 27.8561 30.556 27.8441 30.556C27.1361 30.844 26.3681 31 25.5401 31C24.3161 31 23.0081 30.712 21.6281 30.124C20.2481 29.536 18.8681 28.744 17.5001 27.748C17.0321 27.4 16.5641 27.052 16.1201 26.68L20.0441 22.756C20.3801 23.008 20.6801 23.2 20.9321 23.332C20.9921 23.356 21.0641 23.392 21.1481 23.428C21.2441 23.464 21.3401 23.476 21.4481 23.476C21.6521 23.476 21.8081 23.404 21.9401 23.272L22.8521 22.372C23.1521 22.072 23.4401 21.844 23.7161 21.7C23.9921 21.532 24.2681 21.448 24.5681 21.448C24.7961 21.448 25.0361 21.496 25.3001 21.604C25.5641 21.712 25.8401 21.868 26.1401 22.072L30.1121 24.892C30.4241 25.108 30.6401 25.36 30.7721 25.66C30.8921 25.96 30.9641 26.26 30.9641 26.596Z" fill="white"/>
</svg>
