<svg width="24" height="24" viewBox="0 0 24 24" fill="none" xmlns="http://www.w3.org/2000/svg">
<path d="M20.6837 19.1791L17.2243 15.7197C18.2727 14.3472 18.8478 12.6824 18.848 10.9257C18.848 8.80876 18.0235 6.81834 16.5263 5.32142C15.0294 3.8245 13.0392 3 10.922 3C8.80499 3 6.81456 3.8245 5.31765 5.32142C2.22745 8.41188 2.22745 13.4401 5.31765 16.5301C6.81456 18.0273 8.80499 18.8518 10.922 18.8518C12.6787 18.8515 14.3434 18.2765 15.7159 17.2281L19.1753 20.6875C19.3834 20.8958 19.6566 21 19.9295 21C20.2024 21 20.4756 20.8958 20.6837 20.6875C21.1004 20.2711 21.1004 19.5955 20.6837 19.1791ZM6.82602 15.0217C4.56762 12.7633 4.56788 9.08846 6.82602 6.8298C7.92006 5.73602 9.37479 5.13339 10.922 5.13339C12.4694 5.13339 13.9239 5.73602 15.0179 6.8298C16.112 7.92384 16.7146 9.37857 16.7146 10.9257C16.7146 12.4732 16.112 13.9277 15.0179 15.0217C13.9239 16.1157 12.4694 16.7184 10.922 16.7184C9.37479 16.7184 7.92006 16.1157 6.82602 15.0217Z" fill="#757575"/>
</svg>
