<svg width="38" height="38" viewBox="0 0 38 38" fill="none" xmlns="http://www.w3.org/2000/svg">
<path d="M26.5169 5H18.9299V13.1241C18.9299 13.4956 18.7055 13.8341 18.3523 13.9923C18.2164 14.0537 18.0699 14.0836 17.9243 14.0836C17.6951 14.0836 17.4674 14.0084 17.2832 13.8633L15.128 12.1616L12.972 13.8633C12.672 14.1005 12.2561 14.1504 11.9029 13.9923C11.5505 13.8341 11.3252 13.4956 11.3252 13.1241V5H3.73922C2.23253 5 1 6.17594 1 7.61363V29.3471C1 30.784 2.23245 31.9599 3.73922 31.9599H19.5004V15.945C19.5004 14.3929 20.8237 13.1303 22.4504 13.1303H24.4985C24.8734 12.3911 25.6674 11.8799 26.5837 11.8799H26.8283C27.0487 10.7937 28.0535 9.97089 29.2563 9.97089V7.61363C29.2562 6.17594 28.0229 5 26.5169 5ZM10.4976 29.0746H4.95075C4.39566 29.0746 3.94516 28.6455 3.94516 28.1151C3.94516 27.5854 4.39566 27.1556 4.95075 27.1556H10.4975C11.0526 27.1556 11.5031 27.5854 11.5031 28.1151C11.5032 28.6455 11.0526 29.0746 10.4976 29.0746ZM3.94516 25.4416C3.94516 24.9112 4.39566 24.4821 4.95075 24.4821H8.85403C9.40912 24.4821 9.85962 24.9112 9.85962 25.4416C9.85962 25.9712 9.40912 26.4011 8.85403 26.4011H4.95075C4.39566 26.4011 3.94516 25.9712 3.94516 25.4416ZM10.4976 23.7268H4.95075C4.39566 23.7268 3.94516 23.2969 3.94516 22.7673C3.94516 22.2369 4.39566 21.8078 4.95075 21.8078H10.4975C11.0526 21.8078 11.5031 22.2369 11.5031 22.7673C11.5032 23.2969 11.0526 23.7268 10.4976 23.7268ZM16.9188 5V11.0847L15.7693 10.1766C15.5834 10.03 15.3558 9.9563 15.1281 9.9563C14.9004 9.9563 14.6728 10.03 14.4868 10.1766L13.3365 11.0847V5H16.9188ZM32.2318 14.089V14.0898C32.231 14.2502 32.096 14.3799 31.9278 14.3799H26.5837C26.4663 14.3799 26.3649 14.3162 26.3142 14.2233C26.3207 14.1796 26.3239 14.135 26.3239 14.0898C26.3239 14.0445 26.3207 13.9992 26.3142 13.9554C26.3641 13.8625 26.4663 13.7988 26.5837 13.7988H27.7888C28.3438 13.7988 28.7944 13.3698 28.7944 12.8394V12.3297C28.7944 12.0871 29.0012 11.8899 29.2562 11.8899C29.5103 11.8899 29.7171 12.0871 29.7171 12.3297V12.8394C29.7171 13.3698 30.1676 13.7988 30.7226 13.7988H31.9277C32.096 13.7988 32.2318 13.9293 32.2318 14.089ZM36.0612 15.0492H34.013C33.6381 15.7884 32.8441 16.2989 31.9278 16.2989H26.5837C25.6674 16.2989 24.8734 15.7884 24.4985 15.0492H22.4504C21.9331 15.0492 21.5116 15.4507 21.5116 15.945V32.1042C21.5116 32.5985 21.9331 33 22.4504 33H36.0612C36.5785 33 37 32.5985 37 32.1042V15.945C37 15.4507 36.5785 15.0492 36.0612 15.0492ZM27.0358 29.3071L25.3963 30.8715C25.2001 31.0588 24.9426 31.1524 24.6852 31.1524C24.4278 31.1524 24.1703 31.0588 23.974 30.8715L23.0988 30.0371C22.7062 29.6618 22.7062 29.0546 23.0988 28.68C23.4914 28.3054 24.1285 28.3054 24.5211 28.68L24.6852 28.8358L25.6135 27.95C26.0061 27.5755 26.6433 27.5755 27.0358 27.95C27.4284 28.3254 27.4284 28.9326 27.0358 29.3071ZM27.0358 24.4898L25.3963 26.0541C25.2001 26.2414 24.9426 26.3351 24.6852 26.3351C24.4278 26.3351 24.1703 26.2414 23.974 26.0541L23.0988 25.2197C22.7062 24.8444 22.7062 24.2372 23.0988 23.8627C23.4914 23.4881 24.1285 23.4881 24.5211 23.8627L24.6852 24.0192L25.6135 23.1334C26.0061 22.7581 26.6433 22.7589 27.0358 23.1334C27.4284 23.508 27.4284 24.1152 27.0358 24.4898ZM27.0358 19.6724L25.3963 21.2367C25.2001 21.424 24.9426 21.5177 24.6852 21.5177C24.4278 21.5177 24.1703 21.424 23.974 21.2367L23.0988 20.4024C22.7062 20.0278 22.7062 19.4199 23.0988 19.0453C23.4914 18.6707 24.1285 18.6707 24.5211 19.0453L24.6852 19.2019L25.6135 18.3161C26.0061 17.9415 26.6433 17.9415 27.0358 18.3161C27.4284 18.6907 27.4284 19.2978 27.0358 19.6724ZM34.7016 30.3702H28.9955C28.4396 30.3702 27.9899 29.9412 27.9899 29.4108C27.9899 28.8811 28.4396 28.4513 28.9955 28.4513H34.7016C35.2567 28.4513 35.7072 28.8811 35.7072 29.4108C35.7072 29.9412 35.2567 30.3702 34.7016 30.3702ZM34.7016 25.5529H28.9955C28.4396 25.5529 27.9899 25.1238 27.9899 24.5934C27.9899 24.0638 28.4396 23.6339 28.9955 23.6339H34.7016C35.2567 23.6339 35.7072 24.0638 35.7072 24.5934C35.7072 25.1238 35.2567 25.5529 34.7016 25.5529ZM34.7016 20.7363H28.9955C28.4396 20.7363 27.9899 20.3064 27.9899 19.7768C27.9899 19.2464 28.4396 18.8173 28.9955 18.8173H34.7016C35.2567 18.8173 35.7072 19.2464 35.7072 19.7768C35.7072 20.3064 35.2567 20.7363 34.7016 20.7363Z" fill="#222222"/>
</svg>
