<svg width="28" height="28" viewBox="0 0 28 28" fill="none" xmlns="http://www.w3.org/2000/svg">
<path d="M27.7548 8.14239L20.1714 0.267446C19.924 0.0108866 19.5449 -0.0696488 19.2148 0.0632238C18.8835 0.197378 18.6665 0.518238 18.6665 0.875199V4.66698H18.3749C12.1029 4.66698 6.99994 9.76997 6.99994 16.0419V17.7919C6.99994 18.1978 7.28577 18.5361 7.68118 18.6284C7.74548 18.6447 7.80957 18.6517 7.87365 18.6517C8.20391 18.6517 8.52007 18.458 8.67281 18.1535C10.3132 14.8717 13.6113 12.8335 17.2805 12.8335H18.6665V16.6251C18.6665 16.9823 18.8835 17.3031 19.2148 17.436C19.5427 17.5701 19.924 17.4885 20.1714 17.2318L27.7548 9.35683C28.0814 9.01738 28.0814 8.48312 27.7548 8.14239Z" fill="#222222"/>
<path d="M24.4998 28H3.49997C1.57033 28 0 26.4299 0 24.5V8.16695C0 6.23731 1.57033 4.66698 3.49997 4.66698H6.99995C7.64509 4.66698 8.16654 5.18843 8.16654 5.83357C8.16654 6.4787 7.64509 7.00015 6.99995 7.00015H3.49997C2.85591 7.00015 2.33317 7.52288 2.33317 8.16695V24.5C2.33317 25.1441 2.85591 25.6668 3.49997 25.6668H24.4998C25.1437 25.6668 25.6664 25.1441 25.6664 24.5V15.1669C25.6664 14.5218 26.1879 14.0001 26.833 14.0001C27.4783 14.0001 27.9998 14.5218 27.9998 15.1669V24.5C27.9998 26.4299 26.4295 28 24.4998 28Z" fill="#222222"/>
</svg>
