<svg width="38" height="38" viewBox="0 0 38 38" fill="none" xmlns="http://www.w3.org/2000/svg">
<path d="M36.8959 18.48L34.0535 11.98C33.954 11.7495 33.7905 11.5531 33.5827 11.4146C33.375 11.2762 33.132 11.2016 32.8832 11.2H26.0024L26.4139 7.443C26.4342 7.26062 26.416 7.07597 26.3606 6.9012C26.3052 6.72643 26.2138 6.5655 26.0924 6.429C25.9722 6.29433 25.8254 6.18659 25.6614 6.1127C25.4975 6.03882 25.3201 6.00043 25.1407 6H7.43065C7.08955 6 6.76242 6.13696 6.52122 6.38076C6.28002 6.62456 6.14452 6.95522 6.14452 7.3C6.14452 7.64478 6.28002 7.97544 6.52122 8.21924C6.76242 8.46303 7.08955 8.6 7.43065 8.6H13.8613C14.2024 8.6 14.5295 8.73696 14.7707 8.98076C15.0119 9.22456 15.1474 9.55522 15.1474 9.9C15.1474 10.2448 15.0119 10.5754 14.7707 10.8192C14.5295 11.063 14.2024 11.2 13.8613 11.2H4.85839C4.51729 11.2 4.19016 11.337 3.94896 11.5808C3.70776 11.8246 3.57226 12.1552 3.57226 12.5C3.57226 12.8448 3.70776 13.1754 3.94896 13.4192C4.19016 13.663 4.51729 13.8 4.85839 13.8H17.7197C18.0608 13.8 18.3879 13.937 18.6291 14.1808C18.8703 14.4246 19.0058 14.7552 19.0058 15.1C19.0058 15.4448 18.8703 15.7754 18.6291 16.0192C18.3879 16.263 18.0608 16.4 17.7197 16.4H8.71678C8.37568 16.4 8.04855 16.537 7.80735 16.7808C7.56615 17.0246 7.43065 17.3552 7.43065 17.7C7.43065 18.0448 7.56615 18.3754 7.80735 18.6192C8.04855 18.863 8.37568 19 8.71678 19H13.8613C14.2024 19 14.5295 19.137 14.7707 19.3808C15.0119 19.6246 15.1474 19.9552 15.1474 20.3C15.1474 20.6448 15.0119 20.9754 14.7707 21.2192C14.5295 21.463 14.2024 21.6 13.8613 21.6H3.57226C3.23116 21.6 2.90403 21.737 2.66283 21.9808C2.42163 22.2246 2.28613 22.5552 2.28613 22.9C2.28613 23.2448 2.42163 23.5754 2.66283 23.8192C2.90403 24.063 3.23116 24.2 3.57226 24.2H6.14452C6.48562 24.2 6.81276 24.337 7.05395 24.5808C7.29515 24.8245 7.43065 25.1552 7.43065 25.5C7.43065 25.8448 7.29515 26.1754 7.05395 26.4192C6.81276 26.663 6.48562 26.8 6.14452 26.8H4.85839C4.51729 26.8 4.19016 26.937 3.94896 27.1807C3.70776 27.4245 3.57226 27.7552 3.57226 28.1C3.57226 28.4448 3.70776 28.7754 3.94896 29.0192C4.19016 29.263 4.51729 29.4 4.85839 29.4H8.52386C8.66274 29.9482 8.92706 30.4559 9.29554 30.882C9.60779 31.2349 9.99041 31.5169 10.4182 31.7096C10.8461 31.9023 11.3094 32.0013 11.7778 32C12.5703 31.9771 13.3386 31.7181 13.9861 31.2556C14.6336 30.793 15.1316 30.1475 15.4175 29.4H25.2436C25.3824 29.9482 25.6468 30.4559 26.0152 30.882C26.3275 31.2349 26.7101 31.5169 27.1379 31.7096C27.5658 31.9023 28.0291 32.0013 28.4975 32C29.29 31.9771 30.0583 31.7181 30.7058 31.2556C31.3533 30.793 31.8513 30.1475 32.1372 29.4H34.7095C35.0274 29.4019 35.3348 29.2848 35.5723 29.0711C35.8098 28.8574 35.9606 28.5624 35.9956 28.243L36.9859 19.143C37.0212 18.9179 36.9899 18.6872 36.8959 18.48ZM11.7778 29.4C11.6711 29.4046 11.5648 29.3848 11.4668 29.3421C11.3688 29.2993 11.2816 29.2347 11.2119 29.153C11.1109 29.0267 11.0371 28.8806 10.995 28.724C10.9529 28.5673 10.9436 28.4035 10.9675 28.243C11.0004 27.878 11.1563 27.5355 11.4091 27.2728C11.662 27.0101 11.9965 26.8432 12.3565 26.8C12.4632 26.7953 12.5695 26.8151 12.6675 26.8579C12.7655 26.9007 12.8527 26.9653 12.9224 27.047C13.0234 27.1732 13.0972 27.3193 13.1393 27.476C13.1814 27.6327 13.1907 27.7965 13.1668 27.957C13.1339 28.322 12.978 28.6645 12.7252 28.9272C12.4723 29.1899 12.1378 29.3568 11.7778 29.4ZM28.4975 29.4C28.3908 29.4046 28.2845 29.3848 28.1865 29.3421C28.0885 29.2993 28.0013 29.2347 27.9316 29.153C27.8306 29.0267 27.7567 28.8806 27.7147 28.724C27.6726 28.5673 27.6632 28.4035 27.6872 28.243C27.7201 27.878 27.876 27.5355 28.1288 27.2728C28.3817 27.0101 28.7161 26.8432 29.0762 26.8C29.1829 26.7953 29.2892 26.8151 29.3872 26.8579C29.4852 26.9007 29.5723 26.9653 29.6421 27.047C29.7431 27.1732 29.8169 27.3193 29.859 27.476C29.9011 27.6327 29.9104 27.7965 29.8865 27.957C29.8536 28.322 29.6977 28.6645 29.4449 28.9272C29.192 29.1899 28.8575 29.3568 28.4975 29.4ZM34.285 20.3H28.6004C28.4209 20.2996 28.2435 20.2612 28.0796 20.1873C27.9157 20.1134 27.7689 20.0057 27.6486 19.871C27.5272 19.7345 27.4358 19.5736 27.3804 19.3988C27.325 19.224 27.3068 19.0394 27.3271 18.857L27.7515 14.957C27.7894 14.6399 27.9415 14.348 28.1787 14.137C28.4159 13.926 28.7217 13.8107 29.0376 13.813H32.0343L34.4394 19.208L34.285 20.3Z" fill="#222222"/>
<path d="M3.57226 19C3.91336 19 4.2405 18.863 4.48169 18.6192C4.72289 18.3754 4.85839 18.0448 4.85839 17.7C4.85839 17.3552 4.72289 17.0246 4.48169 16.7808C4.2405 16.537 3.91336 16.4 3.57226 16.4H2.28613C1.94503 16.4 1.61789 16.537 1.3767 16.7808C1.1355 17.0246 1 17.3552 1 17.7C1 18.0448 1.1355 18.3754 1.3767 18.6192C1.61789 18.863 1.94503 19 2.28613 19H3.57226Z" fill="#222222"/>
</svg>
