<svg width="96" height="96" viewBox="0 0 96 96" fill="none" xmlns="http://www.w3.org/2000/svg">
<path d="M89.218 46.6842C86.8769 45.0439 81.9651 42.7094 72.9676 42.7094H71.5806L53.8415 34.4317C51.8213 33.4888 49.6187 33 47.3891 33H31.961C30.6454 33 29.3443 33.267 28.1357 33.7854L12.1183 40.6498C11.0823 41.094 9.96689 41.323 8.83966 41.323H7.77411C6.24205 41.3223 5 42.5644 5 44.0964V52.8781C5 54.2192 5.9586 55.3681 7.27808 55.6075L20.2583 57.9676V59.3547H88.2259C89.7579 59.3547 91 58.1126 91 56.5806V50.102C91 48.7372 90.3353 47.467 89.218 46.6842Z" fill="#FF8086"/>
<path d="M32.197 35.7742H43.4791V42.7094H26.8246C24.2421 42.7094 23.4796 39.19 25.8312 38.1211L29.9012 36.2715C30.6223 35.9435 31.405 35.7742 32.197 35.7742Z" fill="#E5646E"/>
<path d="M89.693 53.8065C88.6058 53.8065 87.6623 53.1511 87.1689 52.182C85.5653 49.0306 82.2945 46.8706 78.5159 46.8706C74.7379 46.8706 71.4671 49.0306 69.8628 52.182C69.3701 53.1511 68.4266 53.8065 67.3394 53.8065H39.677V48.2583H26.4055C25.7389 48.2583 25.0677 48.1461 24.4686 47.8535C23.1951 47.2308 21.7713 46.8706 20.2583 46.8706C18.7426 46.8706 17.3162 47.2289 16.042 47.8528C15.4423 48.1461 14.7691 48.2583 14.1012 48.2583H5V52.8781C5 53.0408 5.01509 53.2003 5.04265 53.3558C5.06955 53.5093 5.11023 53.6582 5.16141 53.8033C5.16206 53.8039 5.16206 53.8052 5.16206 53.8065C5.4875 54.7205 6.27814 55.4259 7.27808 55.6076L20.2583 57.9677L23.0324 59.3548H88.2259C89.7579 59.3548 91 58.1127 91 56.5806V53.8065H89.693Z" fill="#E5646E"/>
<path d="M88.2261 59.3547H25.8066V56.5806H91.0002C91.0002 58.1126 89.7581 59.3547 88.2261 59.3547Z" fill="#DB4655"/>
<path d="M71.5799 42.7094L56.7179 35.7742H36.7933C35.5906 35.7742 34.9417 37.1855 35.7245 38.0988L38.431 41.2568C39.2216 42.1786 40.3757 42.7101 41.5909 42.7101H71.5799V42.7094Z" fill="#C3DDFF"/>
<path d="M36.1113 38.5482L38.4321 41.2561C39.2227 42.1786 40.3768 42.7094 41.592 42.7094H71.5809L62.6642 38.5482H36.1113Z" fill="#A4CCFF"/>
<path d="M39.6776 48.2583H35.8491C35.1404 48.2583 34.7356 49.0673 35.1608 49.6342L37.4579 52.697C37.9821 53.3951 38.8043 53.8065 39.6776 53.8065H43.5054C44.214 53.8065 44.6189 52.9975 44.1937 52.43L41.8966 49.3678C41.373 48.669 40.5502 48.2583 39.6776 48.2583Z" fill="#6F6571"/>
<path d="M7.77411 45.4835H5V48.2583H7.77411C8.54112 48.2583 9.16116 47.6376 9.16116 46.8706C9.16116 46.1042 8.54112 45.4835 7.77411 45.4835Z" fill="#FF9A9F"/>
<path d="M85.4513 56.5805C85.4513 60.411 82.3458 63.5158 78.5154 63.5158C74.6855 63.5158 71.5801 60.411 71.5801 56.5805C71.5801 52.7501 74.6855 49.6453 78.5154 49.6453C82.3458 49.6453 85.4513 52.7501 85.4513 56.5805Z" fill="#5D5360"/>
<path d="M82.6768 56.5806C82.6768 58.8784 80.8141 60.7418 78.5157 60.7418C76.2179 60.7418 74.3545 58.8784 74.3545 56.5806C74.3545 54.2822 76.2179 52.4194 78.5157 52.4194C80.8141 52.4194 82.6768 54.2822 82.6768 56.5806Z" fill="#B6B1B7"/>
<path d="M78.5165 52.4194C77.0113 52.4194 75.6932 53.216 74.9629 54.4141C75.5934 54.0296 76.3368 53.8065 77.1294 53.8065C79.4278 53.8065 81.2906 55.6692 81.2906 57.9677C81.2906 58.7603 81.0675 59.503 80.6824 60.1335C81.8804 59.4026 82.6776 58.0864 82.6776 56.5806C82.6783 54.2822 80.8149 52.4194 78.5165 52.4194Z" fill="#9B959D"/>
<path d="M79.903 56.5805C79.903 57.3462 79.2823 57.9676 78.516 57.9676C77.7503 57.9676 77.1289 57.3462 77.1289 56.5805C77.1289 55.8142 77.7503 55.1935 78.516 55.1935C79.2823 55.1935 79.903 55.8142 79.903 56.5805Z" fill="#DAD8DB"/>
<path d="M27.1938 56.5805C27.1938 60.411 24.089 63.5158 20.2585 63.5158C16.428 63.5158 13.3232 60.411 13.3232 56.5805C13.3232 52.7501 16.428 49.6453 20.2585 49.6453C24.089 49.6453 27.1938 52.7501 27.1938 56.5805Z" fill="#5D5360"/>
<path d="M24.42 56.5806C24.42 58.8784 22.5566 60.7418 20.2588 60.7418C17.9604 60.7418 16.0977 58.8784 16.0977 56.5806C16.0977 54.2822 17.9604 52.4194 20.2588 52.4194C22.5566 52.4194 24.42 54.2822 24.42 56.5806Z" fill="#B6B1B7"/>
<path d="M20.2577 52.4194C18.7519 52.4194 17.435 53.2166 16.7041 54.4141C17.3346 54.0296 18.078 53.8065 18.8706 53.8065C21.1684 53.8065 23.0318 55.6692 23.0318 57.9677C23.0318 58.7603 22.8081 59.5036 22.4236 60.1335C23.6217 59.4033 24.4189 58.0864 24.4189 56.5806C24.4189 54.2822 22.5555 52.4194 20.2577 52.4194Z" fill="#9B959D"/>
<path d="M21.6452 56.5805C21.6452 57.3462 21.0238 57.9676 20.2581 57.9676C19.4918 57.9676 18.8711 57.3462 18.8711 56.5805C18.8711 55.8142 19.4918 55.1935 20.2581 55.1935C21.0238 55.1935 21.6452 55.8142 21.6452 56.5805Z" fill="#DAD8DB"/>
<path d="M44.7863 42.7094H48.4383L42.4931 35.7742H38.8418L44.7863 42.7094Z" fill="#857E87"/>
<path d="M41.2197 38.5482L44.7864 42.7094H48.4384L44.8717 38.5482H41.2197Z" fill="#6F6571"/>
<path d="M88.2259 49.6454H90.9744C90.8524 48.5529 90.3249 47.5635 89.4647 46.8706H88.2259C87.4596 46.8706 86.8389 47.492 86.8389 48.2583C86.8389 49.024 87.4596 49.6454 88.2259 49.6454Z" fill="#FFC269"/>
<path d="M41.0187 53.0408L37.4316 48.2583H35.8491C35.1404 48.2583 34.7356 49.0673 35.1608 49.6342L37.4579 52.697C37.9821 53.3951 38.8043 53.8065 39.6776 53.8065H42.5501C41.9478 53.8065 41.3802 53.5224 41.0187 53.0408Z" fill="#5D5360"/>
</svg>
