<svg width="36" height="36" viewBox="0 0 36 36" fill="none" xmlns="http://www.w3.org/2000/svg">
<path d="M35.1506 13.0053L23.4901 11.8712L18.8582 0.592317C18.5339 -0.197439 17.466 -0.197439 17.1418 0.592317L12.5099 11.8713L0.849394 13.0053C0.032926 13.0847 -0.29705 14.1496 0.318957 14.7171L9.11687 22.822L6.54217 34.8019C6.36189 35.6407 7.22575 36.2988 7.93077 35.8598L18 29.59L28.0692 35.8598C28.7743 36.2988 29.6382 35.6407 29.4579 34.8019L26.8831 22.822L35.681 14.7171C36.2971 14.1496 35.9671 13.0847 35.1506 13.0053Z" fill="#FFDC64"/>
<path d="M18.8582 0.592317C18.5339 -0.197439 17.466 -0.197439 17.1418 0.592317L12.5099 11.8713L0.849394 13.0053C0.032926 13.0847 -0.29705 14.1496 0.318957 14.7171L9.11687 22.822L6.54217 34.8019C6.36189 35.6407 7.22575 36.2988 7.93077 35.8598L10.1782 34.4604C10.4892 21.0335 16.4384 11.5782 21.1484 6.1692L18.8582 0.592317Z" fill="#FFC850"/>
</svg>
