<svg width="38" height="38" viewBox="0 0 38 38" fill="none" xmlns="http://www.w3.org/2000/svg">
<path fill-rule="evenodd" clip-rule="evenodd" d="M7.01459 19.6496C7.07154 20.5256 7.16733 21.2185 7.40878 22.1122C7.47427 22.3546 7.68662 22.5172 7.93776 22.5172H11.304C11.6308 22.5172 11.8828 22.2377 11.849 21.9127C11.6503 19.9979 11.629 18.0064 11.7873 16.0749C11.8136 15.7539 11.5633 15.4822 11.2412 15.4822H7.93781C7.68672 15.4822 7.47433 15.6449 7.40883 15.8873C7.24592 16.4907 7.12833 17.1125 7.06293 17.7488C7.00411 18.3197 6.99754 18.6905 7.00062 19.2542L7.01459 19.6496ZM12.1475 13.2772C12.369 12.036 12.6662 10.8479 13.0325 9.73847C13.1962 9.24244 12.6309 8.81905 12.201 9.11572C10.7669 10.1052 9.5572 11.3984 8.66673 12.9017C8.44974 13.268 8.71246 13.7289 9.1382 13.7289H11.6081C11.876 13.7289 12.1005 13.541 12.1475 13.2772ZM24.0278 13.0745C23.6216 11.0249 22.9935 9.15728 22.1745 7.61194C22.0984 7.46838 21.9773 7.37426 21.8193 7.33598C19.9694 6.88782 18.0247 6.88819 16.1761 7.33598C16.0182 7.37426 15.8971 7.46833 15.8209 7.61194C15.002 9.15733 14.3739 11.0249 13.9677 13.0745C13.9002 13.415 14.158 13.7289 14.5052 13.7289H23.4903C23.8375 13.7289 24.0953 13.415 24.0278 13.0745ZM26.3873 13.7289H28.8573C29.2831 13.7289 29.5457 13.2681 29.3288 12.9018C28.4383 11.3982 27.2285 10.1046 25.7943 9.11536C25.3644 8.81879 24.7991 9.24218 24.9629 9.73815C25.3292 10.8477 25.6264 12.0359 25.8479 13.2773C25.895 13.541 26.1195 13.7289 26.3873 13.7289ZM26.6915 22.5173H30.0578C30.3089 22.5173 30.5213 22.3547 30.5868 22.1122C30.7497 21.5092 30.8673 20.8873 30.9326 20.2507C30.9964 19.627 30.9948 19.3414 30.9948 18.7212C30.9948 18.4728 30.9546 17.9628 30.9326 17.7488C30.8672 17.1125 30.7496 16.4907 30.5867 15.8873C30.5212 15.6449 30.3088 15.4822 30.0577 15.4822H26.7543C26.4323 15.4822 26.182 15.7539 26.2083 16.0749C26.3666 18.0065 26.3452 19.9979 26.1465 21.9127C26.1128 22.2378 26.3647 22.5173 26.6915 22.5173ZM25.7206 24.7083C25.4585 25.9852 25.101 27.2627 24.6461 28.4541C24.4579 28.9469 25.0095 29.3956 25.4536 29.1109C27.0374 28.096 28.3678 26.719 29.3284 25.0978C29.5455 24.7315 29.2828 24.2705 28.857 24.2705H26.2574C25.9944 24.2706 25.7735 24.4508 25.7206 24.7083ZM13.3493 28.4539C12.8944 27.2624 12.537 25.9852 12.2749 24.7083C12.222 24.4508 12.001 24.2706 11.7382 24.2706H9.13851C8.71272 24.2706 8.45006 24.7315 8.6671 25.0978C9.6277 26.7189 10.958 28.0956 12.5418 29.1107C12.9859 29.3953 13.5375 28.9467 13.3493 28.4539ZM23.3374 24.2706H14.6582C14.3045 24.2706 14.0452 24.5959 14.124 24.9407C14.6169 27.0951 15.3589 29.0176 16.3038 30.5244C16.387 30.6571 16.5079 30.7403 16.6615 30.7708C18.2038 31.0763 19.7904 31.0765 21.334 30.7708C21.4876 30.7403 21.6085 30.6571 21.6917 30.5244C22.6366 29.0176 23.3787 27.0955 23.8715 24.9407C23.9504 24.5959 23.691 24.2706 23.3374 24.2706ZM13.436 18.6484C13.436 19.7981 13.5037 20.9323 13.6306 22.0321C13.6627 22.31 13.8952 22.5173 14.1749 22.5173H23.8206C24.1003 22.5173 24.3329 22.31 24.3649 22.0321C24.5954 20.0349 24.6219 17.9934 24.4402 15.9809C24.4146 15.6976 24.179 15.4823 23.8945 15.4823H14.101C13.8165 15.4823 13.5809 15.6976 13.5553 15.9809C13.4764 16.8546 13.436 17.7468 13.436 18.6484Z" fill="white"/>
</svg>
