<svg width="250" height="390" viewBox="0 0 250 390" fill="none" xmlns="http://www.w3.org/2000/svg">
<g opacity="0.1">
<path fill-rule="evenodd" clip-rule="evenodd" d="M153.928 34.8898C163.472 40.7452 172.37 47.3812 180.57 54.6889C182.782 54.629 185.16 55.0647 187.77 56.1726C207.012 64.3105 241.275 115.926 248.718 141.108C251.105 149.201 246.495 151.755 238.616 151.711C241.188 162.406 242.828 173.375 243.487 184.49C245.098 186.015 246.476 188.006 247.543 190.642C255.384 209.977 243.041 270.647 230.455 293.7C226.419 301.087 221.364 299.673 215.861 294.132C209.991 303.675 203.334 312.581 196.008 320.784C196.057 322.976 195.62 325.321 194.524 327.899C186.363 347.105 134.644 381.293 109.41 388.714C101.36 391.088 98.7752 386.568 98.7819 378.814C87.9974 381.403 76.9355 383.058 65.7251 383.708C64.2259 385.229 62.2957 386.53 59.7711 387.546C40.3933 395.369 -20.4002 383.044 -43.5022 370.49C-50.8284 366.51 -49.5252 361.532 -44.1127 356.099C-53.7482 350.196 -62.7257 343.5 -70.9945 336.126C-73.0891 336.123 -75.3252 335.672 -77.7742 334.636C-97.019 326.495 -131.278 274.883 -138.719 249.705C-141.076 241.728 -136.63 239.124 -128.963 239.095C-131.554 228.286 -133.202 217.21 -133.838 205.974C-135.302 204.498 -136.555 202.61 -137.545 200.169C-145.383 180.831 -133.037 120.162 -120.457 97.1064C-116.465 89.7947 -111.473 91.1045 -106.022 96.5061C-100.114 86.9227 -93.4006 77.9848 -86.0171 69.756C-86.026 67.6445 -85.5747 65.3802 -84.5276 62.9093C-76.366 43.7034 -24.6483 9.51607 0.585261 2.09212C8.63925 -0.275451 11.2235 4.2445 11.2137 12.0008C21.9786 9.43753 33.0156 7.8118 44.1948 7.17376C45.7079 5.62038 47.6621 4.29771 50.2249 3.26257C69.6036 -4.55938 130.396 7.76122 153.498 20.3148C160.901 24.34 159.484 29.3879 153.928 34.8898Z" fill="#1B1918"/>
<path fill-rule="evenodd" clip-rule="evenodd" d="M16.0371 68.8152C-54.0149 90.335 -93.3271 164.488 -71.7565 234.389C-50.1858 304.294 24.1134 343.524 94.1694 322.002C164.216 300.473 203.527 226.329 181.958 156.419C160.388 86.5196 86.0878 47.2843 16.0371 68.8152Z" fill="#FEFDF4"/>
<path d="M33.3153 125.276C-5.49537 137.198 -27.2714 178.271 -15.3198 216.997C-3.36998 255.719 37.791 277.457 76.5933 265.527C115.4 253.606 137.18 212.532 125.23 173.807C113.279 135.085 72.1176 113.351 33.3153 125.276Z" fill="url(#paint0_linear_570_5820)"/>
<path fill-rule="evenodd" clip-rule="evenodd" d="M119.643 118.831C119.643 118.831 132.334 128.959 138.708 145.485C145.087 162.019 127.413 165.762 103.362 171.399C79.3238 177.047 76.9887 172.105 73.401 160.379C69.8053 148.649 71.101 128.354 74.7531 112.158C78.4035 95.9652 104.686 106.925 119.643 118.831ZM2.38411 114.328C2.38411 114.328 16.084 105.62 33.8193 104.939C51.5524 104.257 49.3991 122.152 46.9817 146.69C44.5687 171.214 39.1335 171.822 26.8453 171.423C14.5616 171.027 -4.26788 163.249 -18.4395 154.571C-32.6254 145.895 -13.7417 124.611 2.38411 114.328ZM-40.9666 227.676C-40.9666 227.676 -45.8335 212.206 -41.8719 194.939C-37.9112 177.675 -21.1584 184.407 1.95113 193.125C25.0509 201.844 24.2283 207.241 20.6446 218.971C17.0573 230.706 4.63222 246.815 -7.45855 258.215C-19.5511 269.623 -35.2215 245.884 -40.9666 227.676ZM51.1055 292.425C51.1055 292.425 34.8585 292.338 19.5837 283.315C4.30987 274.293 15.8466 260.418 31.2027 241.106C46.5544 221.801 51.452 224.236 61.5602 231.21C71.671 238.189 83.2619 254.912 90.4636 269.872C97.667 284.833 70.2405 292.505 51.1055 292.425ZM149.703 224.582C149.703 224.582 145.929 240.356 133.66 253.153C121.391 265.947 110.463 251.595 95.1029 232.287C79.7468 212.983 83.23 208.777 92.3351 200.53C101.441 192.289 120.388 184.82 136.619 181.213C152.857 177.61 154.124 206.005 149.703 224.582ZM22.2283 86.3845C-38.0984 104.925 -71.9514 168.778 -53.3762 228.98C-34.797 289.176 29.1898 322.963 89.517 304.428C149.849 285.892 183.702 222.037 165.123 161.837C146.544 101.632 82.5608 67.8481 22.2283 86.3845Z" fill="#1B1918"/>
</g>
<defs>
<linearGradient id="paint0_linear_570_5820" x1="-3873.2" y1="-1309.88" x2="-3873.2" y2="-1456.67" gradientUnits="userSpaceOnUse">
<stop stop-color="#006FB5"/>
<stop offset="1" stop-color="#00B2E7"/>
</linearGradient>
</defs>
</svg>
