<svg width="465" height="576" viewBox="0 0 465 576" fill="none" xmlns="http://www.w3.org/2000/svg">
<g opacity="0.1">
<path fill-rule="evenodd" clip-rule="evenodd" d="M433.561 51.2348C447.64 59.872 460.766 69.6604 472.86 80.4397C476.124 80.3513 479.631 80.9941 483.481 82.6284C511.864 94.6322 562.404 170.768 573.382 207.913C576.903 219.851 570.104 223.619 558.482 223.553C562.275 239.329 564.694 255.509 565.667 271.905C568.044 274.153 570.076 277.091 571.65 280.979C583.215 309.5 565.009 398.991 546.444 432.996C540.491 443.891 533.034 441.806 524.917 433.633C516.258 447.71 506.439 460.846 495.633 472.947C495.704 476.179 495.06 479.639 493.443 483.442C481.405 511.772 405.117 562.2 367.895 573.147C356.021 576.649 352.208 569.982 352.218 558.545C336.31 562.363 319.993 564.804 303.457 565.762C301.246 568.006 298.399 569.926 294.675 571.424C266.091 582.964 176.417 564.784 142.34 546.265C131.534 540.395 133.456 533.052 141.44 525.038C127.227 516.331 113.984 506.454 101.787 495.577C98.6977 495.573 95.3993 494.907 91.7869 493.379C63.3996 481.371 12.8653 405.239 1.88962 368.1C-1.58706 356.334 4.97026 352.493 16.2805 352.45C12.4588 336.507 10.0282 320.168 9.08964 303.595C6.92926 301.417 5.08165 298.632 3.62172 295.032C-7.94032 266.507 10.2702 177.016 28.8269 143.008C34.7158 132.223 42.0785 134.155 50.1199 142.123C58.8349 127.987 68.737 114.803 79.6281 102.665C79.615 99.55 80.2807 96.2101 81.8252 92.5653C93.864 64.2354 170.151 13.807 207.372 2.85627C219.252 -0.636045 223.064 6.03116 223.05 17.4721C238.928 13.6912 255.209 11.2931 271.699 10.352C273.931 8.06066 276.813 6.10965 280.593 4.58275C309.178 -6.9551 398.85 11.2185 432.928 29.7358C443.847 35.6732 441.758 43.1192 433.561 51.2348Z" fill="#1B1918"/>
<path fill-rule="evenodd" clip-rule="evenodd" d="M230.166 101.275C126.835 133.018 68.8471 242.399 100.665 345.506C132.483 448.621 242.079 506.487 345.416 474.742C448.739 442.984 506.725 333.618 474.909 230.496C443.093 127.39 333.495 69.5155 230.166 101.275Z" fill="#FEFDF4"/>
<path d="M255.648 184.563C198.4 202.148 166.279 262.734 183.908 319.857C201.535 376.975 262.25 409.039 319.486 391.442C376.728 373.858 408.855 313.27 391.228 256.148C373.599 199.033 312.884 166.973 255.648 184.563Z" fill="url(#paint0_linear_570_5815)"/>
<path fill-rule="evenodd" clip-rule="evenodd" d="M382.99 175.049C382.99 175.049 401.711 189.988 411.113 214.366C420.522 238.754 394.452 244.275 358.975 252.59C323.517 260.922 320.073 253.631 314.781 236.334C309.477 219.032 311.388 189.096 316.775 165.205C322.16 141.321 360.928 157.486 382.99 175.049ZM210.026 168.407C210.026 168.407 230.235 155.562 256.395 154.557C282.553 153.551 279.376 179.948 275.811 216.142C272.251 252.317 264.234 253.213 246.108 252.625C227.989 252.042 200.214 240.569 179.31 227.768C158.385 214.97 186.24 183.574 210.026 168.407ZM146.081 335.601C146.081 335.601 138.902 312.783 144.746 287.312C150.588 261.847 175.3 271.778 209.388 284.637C243.461 297.498 242.248 305.459 236.962 322.762C231.67 340.072 213.342 363.834 195.508 380.649C177.671 397.476 154.556 362.46 146.081 335.601ZM281.893 431.11C281.893 431.11 257.928 430.983 235.397 417.673C212.867 404.364 229.884 383.899 252.536 355.412C275.18 326.937 282.405 330.528 297.315 340.814C312.229 351.109 329.326 375.777 339.949 397.844C350.574 419.912 310.119 431.229 281.893 431.11ZM427.33 331.038C427.33 331.038 421.764 354.306 403.666 373.182C385.569 392.054 369.45 370.884 346.792 342.403C324.141 313.929 329.279 307.725 342.71 295.559C356.141 283.404 384.09 272.386 408.031 267.066C431.984 261.752 433.852 303.636 427.33 331.038ZM239.298 127.188C150.312 154.536 100.377 248.724 127.776 337.525C155.182 426.319 249.566 476.156 338.553 448.815C427.547 421.474 477.481 327.284 450.077 238.485C422.67 149.679 328.292 99.846 239.298 127.188Z" fill="#1B1918"/>
</g>
<defs>
<linearGradient id="paint0_linear_570_5815" x1="-5506.7" y1="-1932.38" x2="-5506.7" y2="-2148.9" gradientUnits="userSpaceOnUse">
<stop stop-color="#006FB5"/>
<stop offset="1" stop-color="#00B2E7"/>
</linearGradient>
</defs>
</svg>
