<svg width="75" height="64" viewBox="0 0 75 64" fill="none" xmlns="http://www.w3.org/2000/svg">
<path d="M72.9534 14.1203C72.1024 10.9243 69.5946 8.40686 66.411 7.55257C60.6406 6 37.5 6 37.5 6C37.5 6 14.3594 6 8.58902 7.55257C5.40538 8.40686 2.8976 10.9243 2.0466 14.1203C0.5 19.9129 0.5 32 0.5 32C0.5 32 0.5 44.0871 2.0466 49.8797C2.8976 53.0757 5.40538 55.5931 8.58902 56.4474C14.3594 58 37.5 58 37.5 58C37.5 58 60.6406 58 66.411 56.4474C69.5946 55.5931 72.1024 53.0757 72.9534 49.8797C74.5 44.0871 74.5 32 74.5 32C74.5 32 74.5 19.9129 72.9534 14.1203Z" fill="#FF0000"/>
<path d="M30.0996 43.1431L49.3232 32.0003L30.0996 20.8574V43.1431Z" fill="white"/>
</svg>
